<?xml version="1.0" encoding="UTF-8" ?>
<!DOCTYPE svg PUBLIC "-//W3C//DTD SVG 1.1//EN" "http://www.w3.org/Graphics/SVG/1.1/DTD/svg11.dtd">
<svg width="359pt" height="156pt" viewBox="0 0 400 174" version="1.1" xmlns="http://www.w3.org/2000/svg">
<g id="#ffce00ff">
</g>
<g id="#2a1f1cff">
<path fill="#2a1f1c" opacity="1.00" d=" M 42.09 8.14 C 43.03 7.71 43.96 7.29 44.90 6.87 C 47.83 8.57 50.43 10.75 52.97 12.97 C 59.25 11.83 65.59 10.47 72.00 10.00 C 81.77 9.95 91.54 11.17 100.90 13.97 C 108.37 16.92 115.63 20.73 121.47 26.33 C 123.68 28.43 125.65 30.76 127.56 33.13 C 133.26 38.49 133.15 47.00 129.94 53.66 C 126.82 59.92 120.68 63.74 114.33 66.11 C 115.89 69.95 117.80 73.77 117.94 78.00 C 118.60 90.62 118.85 103.30 117.48 115.88 C 117.04 116.22 116.14 116.90 115.69 117.24 C 115.59 115.67 115.34 114.12 115.29 112.56 C 115.43 112.16 115.70 111.36 115.83 110.96 L 116.06 110.27 C 118.16 104.41 117.12 98.11 117.40 92.03 C 116.82 82.77 117.17 72.38 110.51 65.02 C 110.65 62.61 110.77 60.19 110.76 57.77 C 108.90 59.24 109.92 61.83 109.59 63.85 C 109.03 63.85 107.91 63.86 107.35 63.86 C 107.82 64.49 108.75 65.74 109.22 66.37 C 108.16 66.05 107.09 65.76 106.02 65.48 C 107.42 62.88 103.20 62.34 104.31 65.26 C 103.77 66.96 102.41 68.17 101.17 69.38 C 99.57 68.81 97.96 68.25 96.35 67.71 C 96.90 68.85 97.45 69.98 98.00 71.11 C 96.93 71.48 95.86 71.85 94.79 72.22 C 93.16 69.84 92.22 67.11 91.90 64.25 C 92.50 62.46 93.06 60.65 93.61 58.84 L 93.73 58.80 C 96.21 58.17 98.27 56.63 100.55 55.56 C 103.18 54.52 105.99 55.70 108.59 56.29 L 108.82 56.36 C 109.84 56.61 110.86 56.85 111.89 57.08 C 110.46 53.27 108.04 49.98 105.92 46.55 C 106.09 46.09 106.43 45.16 106.60 44.70 C 108.79 44.40 110.99 44.07 113.07 43.27 C 115.98 42.22 118.88 40.95 121.99 40.65 C 124.73 40.78 127.29 41.86 129.86 42.73 C 129.84 41.96 129.80 41.19 129.76 40.43 C 128.19 36.72 125.59 32.15 120.77 33.25 C 119.63 33.54 118.50 33.86 117.38 34.22 C 116.93 34.23 116.01 34.26 115.55 34.28 L 114.66 34.38 C 114.50 34.03 114.18 33.33 114.02 32.98 C 117.07 32.05 120.26 31.81 123.42 32.24 C 121.30 29.84 119.29 27.26 116.60 25.44 C 109.88 20.21 102.18 16.52 94.10 13.94 C 88.59 12.08 82.69 12.29 76.96 12.06 C 71.37 11.85 65.68 11.88 60.27 13.46 C 57.85 13.99 55.45 14.60 53.06 15.27 C 50.74 13.53 48.41 11.78 45.92 10.29 C 44.98 10.24 44.05 10.17 43.12 10.09 C 42.90 16.02 41.74 21.83 41.20 27.72 C 42.29 27.54 44.48 27.19 45.57 27.02 C 42.71 29.93 41.33 33.82 39.24 37.25 C 37.36 40.36 36.71 44.00 36.40 47.58 C 35.28 47.86 34.29 48.37 33.42 49.08 C 33.71 50.13 34.11 51.14 34.50 52.15 C 34.19 54.77 31.75 58.04 33.88 60.28 C 36.19 59.59 35.67 55.82 36.73 53.87 C 38.52 56.07 36.61 58.41 35.58 60.47 C 34.42 60.66 33.27 60.89 32.12 61.14 C 30.14 61.16 31.43 63.45 31.52 64.50 C 32.95 63.82 34.38 63.11 35.81 62.42 C 36.24 62.82 37.10 63.64 37.52 64.04 C 35.28 67.67 31.67 70.52 30.64 74.82 C 30.94 74.45 31.54 73.71 31.85 73.34 C 37.33 70.18 41.67 65.44 46.87 61.85 C 54.52 56.59 62.26 51.45 70.38 46.95 C 75.50 44.80 80.37 42.04 85.72 40.49 C 88.57 39.55 91.70 38.81 93.70 36.39 C 94.64 36.27 95.59 36.15 96.54 36.02 C 98.66 35.12 100.87 34.41 103.15 33.99 C 106.39 33.36 109.69 33.11 112.99 32.99 C 112.80 33.43 112.42 34.31 112.22 34.75 C 110.71 35.04 109.19 35.34 107.70 35.71 C 104.06 36.43 100.44 37.35 97.13 39.05 L 97.10 39.06 C 96.63 39.07 95.71 39.10 95.24 39.12 C 95.29 39.57 95.38 40.47 95.42 40.93 C 96.04 42.82 96.63 44.73 97.19 46.64 C 98.90 46.79 100.61 46.92 102.33 46.98 C 100.70 47.58 99.11 48.29 97.51 48.96 C 97.04 48.59 96.11 47.86 95.65 47.49 C 95.03 45.80 94.39 44.11 93.71 42.44 C 93.37 41.67 93.04 40.90 92.70 40.13 C 91.77 40.32 90.84 40.54 89.92 40.77 C 85.83 42.14 81.68 43.49 77.89 45.60 C 74.61 47.48 71.40 49.57 67.82 50.85 C 66.15 51.24 63.06 51.89 64.55 54.23 C 64.68 55.38 65.12 56.37 65.87 57.21 C 66.95 58.48 68.05 59.72 69.16 60.96 C 62.40 64.26 57.50 69.96 52.71 75.55 C 52.09 80.60 51.93 86.09 55.28 90.30 C 55.72 91.37 55.56 92.55 55.55 93.68 L 55.17 94.88 C 54.47 93.47 53.75 92.08 53.03 90.68 C 52.48 90.47 51.37 90.05 50.81 89.84 C 49.57 89.44 48.32 88.70 46.98 88.93 L 46.02 89.03 C 45.06 89.28 44.10 89.53 43.14 89.78 C 41.75 89.66 40.37 89.50 38.99 89.30 C 39.52 88.13 40.05 86.96 40.60 85.80 C 36.82 89.08 33.33 92.67 29.44 95.82 C 28.25 94.56 26.55 94.52 24.95 94.40 C 25.82 95.31 26.79 96.11 27.73 96.94 L 27.19 97.95 C 25.11 97.05 23.02 96.15 20.92 95.27 C 21.76 99.06 24.48 101.89 28.10 103.18 C 31.87 104.29 35.89 103.51 39.24 101.57 C 36.51 101.58 33.70 101.38 31.42 99.71 C 31.28 99.39 30.99 98.76 30.85 98.45 C 33.76 98.83 36.69 98.53 39.44 97.51 C 39.70 96.89 40.21 95.63 40.47 95.01 C 41.41 95.27 42.35 95.54 43.29 95.83 C 44.82 97.02 46.19 98.42 47.61 99.75 C 47.98 100.12 48.35 100.49 48.71 100.88 C 49.52 101.83 50.49 102.62 51.49 103.38 C 52.09 104.15 52.66 104.96 53.31 105.69 C 53.93 106.35 54.57 106.98 55.25 107.57 C 57.56 110.57 61.52 108.82 64.62 108.65 L 65.28 109.14 C 68.54 111.45 71.05 114.80 74.79 116.41 C 77.10 117.51 79.60 118.08 82.08 118.65 C 79.80 118.33 77.51 118.72 75.23 118.64 C 72.58 117.73 70.10 116.40 67.56 115.23 C 66.29 114.07 65.06 112.87 63.80 111.70 C 63.41 111.63 62.64 111.49 62.25 111.41 C 59.44 111.03 56.18 111.19 53.99 109.06 C 51.65 106.68 50.01 103.62 47.15 101.75 C 42.15 104.18 36.82 106.14 31.20 106.23 C 27.98 106.30 24.75 105.68 22.03 103.89 C 21.14 102.69 20.18 101.46 19.93 99.95 C 17.74 89.46 17.37 78.69 17.36 68.01 C 17.37 58.94 20.34 50.17 24.28 42.09 C 27.83 34.79 32.99 28.42 38.46 22.46 C 42.50 18.74 39.79 12.68 42.09 8.14 M 114.22 47.15 C 114.28 51.79 116.41 56.21 115.61 60.89 C 119.45 57.43 120.74 52.00 124.46 48.35 C 124.33 47.20 124.16 46.06 123.97 44.93 C 120.81 46.01 117.49 46.51 114.22 47.15 M 127.82 44.30 C 127.56 46.57 127.32 48.85 127.08 51.13 C 125.45 54.26 122.91 56.87 121.78 60.26 C 125.40 58.79 127.16 55.11 128.55 51.74 L 128.77 51.84 C 129.43 49.32 131.61 45.39 127.82 44.30 M 60.91 53.98 L 60.75 54.74 L 60.12 55.03 C 55.94 57.85 51.44 60.22 47.73 63.68 C 45.04 66.24 41.34 67.89 39.31 71.04 C 40.01 72.62 40.99 74.06 41.89 75.53 C 43.21 74.73 44.54 73.93 45.86 73.14 L 45.70 72.62 C 47.75 70.95 50.06 69.60 51.95 67.73 L 53.73 67.84 C 50.73 71.37 46.85 73.96 42.89 76.29 C 41.93 78.09 44.64 78.43 45.49 77.40 C 50.42 72.67 55.67 68.24 61.20 64.24 C 59.68 62.79 57.91 61.25 58.18 58.92 C 60.11 59.88 61.37 61.67 62.98 63.03 C 64.30 62.31 65.24 61.12 66.17 59.97 C 65.03 60.53 63.90 61.13 62.80 61.75 C 61.72 60.17 60.95 58.40 60.00 56.73 C 60.57 56.84 61.71 57.06 62.28 57.16 C 64.23 57.89 64.35 54.86 62.50 54.84 L 62.61 54.10 C 62.18 54.07 61.33 54.01 60.91 53.98 M 98.04 62.66 C 100.60 61.39 103.51 61.34 106.28 61.82 C 107.08 62.28 107.92 62.61 108.81 62.79 C 109.09 61.46 109.31 60.11 109.47 58.76 C 108.97 58.74 107.98 58.70 107.48 58.68 C 105.99 58.00 104.48 57.36 102.99 56.69 C 100.35 57.70 99.43 60.46 98.04 62.66 M 100.24 64.05 C 99.74 65.69 100.29 66.25 101.91 65.72 C 102.41 64.07 101.85 63.51 100.24 64.05 M 33.27 76.03 C 33.56 77.95 35.06 80.02 37.11 80.38 C 36.46 78.73 35.07 76.86 37.03 75.56 C 37.53 76.23 38.51 77.57 39.00 78.24 C 39.29 76.13 37.75 74.51 36.81 72.81 C 35.58 73.83 34.34 74.85 33.27 76.03 M 23.53 87.14 C 24.07 87.93 24.66 88.70 25.30 89.43 C 27.25 89.39 29.09 89.96 30.82 90.84 C 34.04 87.67 37.03 84.26 40.48 81.33 C 41.63 80.58 41.86 79.28 41.84 78.01 C 39.02 80.00 37.16 83.16 34.02 84.72 C 32.05 84.85 31.69 82.56 30.94 81.22 C 31.68 80.23 32.42 79.25 33.15 78.26 C 32.15 78.38 30.14 78.62 29.14 78.74 C 29.26 78.07 29.48 76.72 29.59 76.04 C 28.68 80.30 27.03 84.35 23.53 87.14 M 22.29 90.05 C 21.13 91.00 22.14 93.87 23.74 92.77 C 24.98 91.85 23.86 88.83 22.29 90.05 Z" />
</g>
<g id="#de131cff">
<path fill="#de131c" opacity="1.00" d=" M 43.12 10.09 C 44.05 10.17 44.98 10.24 45.92 10.29 C 45.82 11.42 45.84 12.56 45.72 13.69 C 45.54 14.78 45.35 15.87 45.15 16.95 C 45.78 17.32 47.04 18.06 47.67 18.43 C 47.66 18.96 47.63 20.03 47.62 20.56 C 48.00 20.49 48.75 20.37 49.13 20.31 C 50.47 18.18 52.61 16.75 55.07 16.23 C 56.57 15.85 58.06 15.45 59.54 15.00 C 62.42 14.57 65.32 14.35 68.23 14.35 C 68.10 14.85 67.83 15.87 67.69 16.37 L 67.17 16.63 C 68.15 13.81 63.65 14.74 65.40 17.06 C 62.47 18.45 59.45 19.89 57.19 22.28 C 56.27 22.91 55.24 23.39 54.33 24.03 C 56.51 29.48 54.52 35.22 53.59 40.69 C 52.34 43.00 49.76 44.06 47.50 45.12 C 48.36 47.25 49.40 49.32 50.71 51.21 C 51.50 49.06 51.46 46.79 51.00 44.57 C 53.09 44.76 55.12 44.29 57.02 43.44 C 57.23 45.09 57.44 46.73 57.66 48.38 C 61.96 49.14 66.20 47.79 70.38 46.95 C 62.26 51.45 54.52 56.59 46.87 61.85 C 41.67 65.44 37.33 70.18 31.85 73.34 C 31.54 73.71 30.94 74.45 30.64 74.82 C 31.67 70.52 35.28 67.67 37.52 64.04 C 39.02 62.64 40.90 61.78 42.72 60.89 C 41.97 59.87 41.11 58.95 40.25 58.04 C 41.68 58.60 43.08 59.23 44.47 59.89 C 45.06 54.54 45.60 49.19 46.17 43.84 C 45.77 43.68 44.96 43.37 44.56 43.22 C 43.74 45.58 42.96 47.96 42.18 50.34 C 40.21 50.67 38.25 51.01 36.28 51.36 C 36.31 50.42 36.37 48.52 36.40 47.58 C 36.71 44.00 37.36 40.36 39.24 37.25 C 41.33 33.82 42.71 29.93 45.57 27.02 C 44.48 27.19 42.29 27.54 41.20 27.72 C 41.74 21.83 42.90 16.02 43.12 10.09 M 54.99 19.73 C 56.13 19.71 57.26 19.69 58.40 19.66 C 59.29 18.51 60.23 17.39 61.04 16.18 C 58.63 16.29 55.83 17.21 54.99 19.73 M 50.94 27.63 C 51.41 27.78 52.35 28.07 52.82 28.22 C 52.20 29.89 51.60 31.56 51.00 33.24 C 52.01 32.87 53.02 32.49 54.01 32.09 C 54.39 29.56 54.41 26.97 52.78 24.85 C 52.11 25.74 51.51 26.68 50.94 27.63 Z" />
</g>
<g id="#d16020ff">
<path fill="#d16020" opacity="1.00" d=" M 45.72 13.69 C 45.84 12.56 45.82 11.42 45.92 10.29 C 48.41 11.78 50.74 13.53 53.06 15.27 C 55.45 14.60 57.85 13.99 60.27 13.46 L 59.54 15.00 C 58.06 15.45 56.57 15.85 55.07 16.23 C 53.56 16.30 52.05 16.25 50.55 16.23 L 50.93 18.04 C 50.27 17.48 48.93 16.36 48.26 15.80 C 47.44 15.07 46.59 14.36 45.72 13.69 M 49.51 14.19 C 50.04 14.72 50.04 14.72 49.51 14.19 Z" />
</g>
<g id="#e53422ff">
<path fill="#e53422" opacity="1.00" d=" M 60.27 13.46 C 65.68 11.88 71.37 11.85 76.96 12.06 C 82.69 12.29 88.59 12.08 94.10 13.94 C 94.83 14.54 96.29 15.76 97.02 16.37 C 96.41 16.57 95.20 16.96 94.60 17.16 C 92.71 16.78 90.81 16.48 88.89 16.29 C 89.27 16.52 90.02 16.97 90.40 17.19 C 88.70 18.95 86.60 18.99 84.68 17.62 C 84.25 17.90 83.80 18.16 83.34 18.40 C 82.80 17.74 82.26 17.08 81.72 16.42 C 80.01 16.40 78.21 16.54 76.63 15.75 C 74.13 14.08 71.07 14.40 68.23 14.35 C 65.32 14.35 62.42 14.57 59.54 15.00 L 60.27 13.46 Z" />
<path fill="#e53422" opacity="1.00" d=" M 90.75 103.30 C 95.93 103.35 100.60 101.01 104.96 98.47 C 101.55 102.42 95.95 104.92 90.75 103.30 Z" />
</g>
<g id="#3a1f1aff">
<path fill="#3a1f1a" opacity="1.00" d=" M 45.15 16.95 C 45.35 15.87 45.54 14.78 45.72 13.69 C 46.59 14.36 47.44 15.07 48.26 15.80 C 48.12 16.46 47.82 17.77 47.67 18.43 C 47.04 18.06 45.78 17.32 45.15 16.95 Z" />
<path fill="#3a1f1a" opacity="1.00" d=" M 113.02 42.08 C 112.53 39.94 111.12 37.74 112.02 35.49 C 112.23 35.87 112.67 36.61 112.89 36.98 C 113.61 38.60 115.29 40.71 113.02 42.08 Z" />
<path fill="#3a1f1a" opacity="1.00" d=" M 44.56 43.22 C 44.96 43.37 45.77 43.68 46.17 43.84 C 45.60 49.19 45.06 54.54 44.47 59.89 C 43.08 59.23 41.68 58.60 40.25 58.04 C 41.11 58.95 41.97 59.87 42.72 60.89 C 40.90 61.78 39.02 62.64 37.52 64.04 C 37.10 63.64 36.24 62.82 35.81 62.42 C 34.38 63.11 32.95 63.82 31.52 64.50 C 31.43 63.45 30.14 61.16 32.12 61.14 C 33.27 60.89 34.42 60.66 35.58 60.47 C 36.61 58.41 38.52 56.07 36.73 53.87 C 35.67 55.82 36.19 59.59 33.88 60.28 C 31.75 58.04 34.19 54.77 34.50 52.15 C 34.11 51.14 33.71 50.13 33.42 49.08 C 34.29 48.37 35.28 47.86 36.40 47.58 C 36.37 48.52 36.31 50.42 36.28 51.36 C 37.11 52.43 38.07 53.39 39.11 54.26 C 41.30 54.34 41.46 51.87 42.18 50.34 C 42.96 47.96 43.74 45.58 44.56 43.22 Z" />
<path fill="#3a1f1a" opacity="1.00" d=" M 95.67 72.14 C 99.85 74.87 102.41 79.45 104.35 83.92 C 103.97 85.42 103.56 86.93 103.21 88.44 C 102.81 88.83 102.01 89.59 101.61 89.98 C 101.40 89.07 101.20 88.16 100.98 87.26 C 103.18 82.59 100.04 77.31 95.74 75.20 L 95.66 75.10 C 95.67 74.36 95.67 72.88 95.67 72.14 Z" />
<path fill="#3a1f1a" opacity="1.00" d=" M 45.55 93.16 C 46.17 92.80 47.42 92.07 48.05 91.71 C 48.63 91.96 49.79 92.46 50.37 92.70 C 50.56 93.23 50.93 94.29 51.11 94.81 C 50.57 94.43 49.48 93.67 48.93 93.30 C 48.31 94.32 47.69 95.35 47.07 96.38 C 46.55 95.31 46.04 94.24 45.55 93.16 Z" />
</g>
<g id="#f6da31ff">
<path fill="#f6da31" opacity="1.00" d=" M 49.51 14.19 C 50.04 14.72 50.04 14.72 49.51 14.19 Z" />
</g>
<g id="#e61f29ff">
<path fill="#e61f29" opacity="1.00" d=" M 68.23 14.35 C 71.07 14.40 74.13 14.08 76.63 15.75 C 75.63 16.55 74.64 17.35 73.65 18.15 C 74.99 19.25 76.45 20.25 77.56 21.60 C 77.94 23.08 77.62 24.64 77.59 26.15 C 78.29 25.52 79.00 24.89 79.71 24.27 C 80.23 25.74 80.77 27.13 81.31 28.59 C 82.83 27.28 84.40 26.02 86.08 24.91 C 85.62 26.34 85.13 27.75 84.51 29.11 C 84.71 29.53 85.10 30.35 85.30 30.77 C 86.45 30.69 87.61 30.63 88.77 30.56 C 89.94 32.05 91.27 33.46 93.13 34.03 C 92.13 34.57 91.13 35.10 90.14 35.65 C 91.32 35.92 92.51 36.17 93.70 36.39 C 91.70 38.81 88.57 39.55 85.72 40.49 C 80.37 42.04 75.50 44.80 70.38 46.95 C 66.20 47.79 61.96 49.14 57.66 48.38 C 57.44 46.73 57.23 45.09 57.02 43.44 C 55.12 44.29 53.09 44.76 51.00 44.57 C 51.46 46.79 51.50 49.06 50.71 51.21 C 49.40 49.32 48.36 47.25 47.50 45.12 C 49.76 44.06 52.34 43.00 53.59 40.69 C 54.52 35.22 56.51 29.48 54.33 24.03 C 55.24 23.39 56.27 22.91 57.19 22.28 C 59.45 19.89 62.47 18.45 65.40 17.06 C 65.84 16.95 66.73 16.74 67.17 16.63 L 67.69 16.37 C 67.83 15.87 68.10 14.85 68.23 14.35 M 60.98 21.63 C 56.27 22.40 60.62 29.77 63.98 27.80 C 66.48 26.93 66.02 21.95 63.16 21.76 C 62.45 20.46 61.72 20.42 60.98 21.63 M 57.28 30.17 C 56.93 33.12 59.69 34.34 62.08 34.90 C 61.37 32.71 59.65 30.56 57.28 30.17 Z" />
</g>
<g id="#ffffffff">
<path fill="#ffffff" opacity="1.00" d=" M 94.10 13.94 C 102.18 16.52 109.88 20.21 116.60 25.44 C 116.19 25.46 115.37 25.49 114.96 25.51 C 112.66 24.19 110.54 22.58 108.24 21.27 C 106.64 20.35 104.99 19.50 103.36 18.66 C 102.66 17.37 101.32 16.66 99.87 16.82 C 99.35 16.74 98.31 16.59 97.79 16.51 C 97.68 16.50 97.46 16.46 97.35 16.44 L 97.02 16.37 C 96.29 15.76 94.83 14.54 94.10 13.94 Z" />
<path fill="#ffffff" opacity="1.00" d=" M 117.38 34.22 C 118.50 33.86 119.63 33.54 120.77 33.25 C 121.11 33.74 121.79 34.72 122.13 35.21 C 121.56 35.50 120.41 36.07 119.84 36.36 C 119.03 35.64 118.21 34.93 117.38 34.22 Z" />
<path fill="#ffffff" opacity="1.00" d=" M 127.56 33.13 C 149.72 33.13 171.87 33.10 194.03 33.39 C 244.68 33.21 295.32 33.69 345.97 33.65 C 360.57 33.77 374.52 43.42 379.68 57.09 C 382.26 63.03 382.16 69.63 382.11 75.98 C 382.06 90.64 382.15 105.29 382.07 119.95 C 381.70 133.71 372.93 146.76 360.28 152.21 C 352.75 155.90 344.18 155.44 336.04 155.41 C 275.03 155.54 214.03 154.96 153.02 155.17 C 121.33 154.59 89.62 155.11 57.92 154.85 C 43.26 154.39 29.21 144.71 24.32 130.75 C 20.88 122.21 22.39 112.84 22.03 103.89 C 24.75 105.68 27.98 106.30 31.20 106.23 C 31.43 111.50 31.20 116.78 31.30 122.06 C 31.39 126.93 33.21 131.83 36.84 135.17 C 39.79 131.39 43.47 128.24 47.75 126.07 C 49.81 125.50 51.79 124.67 53.59 123.51 C 55.57 125.86 57.39 128.34 59.20 130.82 C 61.31 127.03 60.07 121.98 58.22 118.27 C 59.59 116.00 60.89 113.69 62.25 111.41 C 62.64 111.49 63.41 111.63 63.80 111.70 C 65.06 112.87 66.29 114.07 67.56 115.23 C 70.63 118.25 73.70 121.30 77.11 123.95 C 79.33 125.82 81.56 127.67 83.81 129.52 C 86.90 132.25 90.06 134.89 93.29 137.46 C 97.58 140.89 101.84 144.36 106.12 147.81 C 108.49 142.98 108.20 137.46 108.30 132.23 C 108.72 129.46 108.95 126.61 109.95 123.98 C 111.72 121.72 113.88 119.80 115.60 117.50 C 115.63 117.43 115.67 117.30 115.69 117.24 C 116.14 116.90 117.04 116.22 117.48 115.88 C 118.86 117.09 120.39 118.11 122.07 118.86 C 126.22 120.70 129.60 124.08 134.17 124.95 C 134.55 119.66 131.82 115.11 129.32 110.71 C 126.53 105.65 132.02 99.94 128.85 95.11 C 126.38 91.80 129.44 87.70 128.36 84.04 C 127.83 82.90 127.24 81.80 126.59 80.72 C 127.56 78.07 128.96 75.58 129.88 72.91 C 129.81 70.28 128.41 67.79 128.85 65.12 C 129.35 61.32 129.79 57.50 129.94 53.66 C 133.15 47.00 133.26 38.49 127.56 33.13 M 154.96 50.54 C 155.62 51.34 156.31 52.13 157.01 52.90 C 155.47 55.04 155.14 59.04 152.42 59.83 C 150.47 55.97 148.64 51.70 144.97 49.16 C 141.28 47.46 137.42 49.85 134.04 51.26 C 134.83 52.74 135.94 54.20 135.72 55.98 C 135.68 62.97 135.66 69.96 135.64 76.95 C 135.75 79.18 136.57 82.11 139.01 82.77 C 142.23 84.00 145.24 81.71 147.79 80.04 C 146.45 78.99 144.69 78.05 145.22 76.02 C 145.53 74.12 144.33 70.96 146.63 70.04 C 147.72 72.51 148.62 75.06 149.74 77.52 C 150.85 79.77 153.29 80.75 155.42 81.79 C 156.03 77.61 157.98 73.78 160.15 70.20 C 162.07 70.19 161.17 72.80 161.43 73.98 C 161.74 76.66 160.45 80.15 162.85 82.14 C 166.43 83.64 170.69 82.65 173.70 80.32 C 172.39 78.79 170.78 77.23 170.89 75.04 C 170.70 67.68 170.95 60.32 170.81 52.96 C 171.08 49.90 167.80 47.53 164.94 48.17 C 161.56 48.71 158.27 49.71 154.96 50.54 M 183.98 51.17 C 185.25 53.19 187.41 55.52 185.78 57.98 C 183.01 63.78 179.63 69.29 177.07 75.19 C 176.16 77.16 176.08 79.72 177.62 81.41 C 180.65 83.51 184.56 82.74 187.94 82.12 C 187.68 80.44 187.01 78.68 187.68 77.00 C 190.42 74.85 194.07 74.69 197.39 74.32 C 198.37 77.39 199.69 80.84 202.85 82.25 C 206.72 83.66 211.12 82.40 214.05 79.63 C 208.72 72.14 206.62 63.05 203.37 54.59 C 202.45 52.13 200.53 50.01 197.94 49.33 C 193.26 47.43 188.45 49.85 183.98 51.17 M 214.91 51.40 C 215.58 52.33 216.30 53.22 217.08 54.07 C 217.87 61.69 216.77 69.37 216.82 77.00 C 216.79 82.83 225.32 84.81 228.47 80.28 C 224.72 77.31 226.39 72.04 226.63 67.99 C 230.02 72.06 232.98 76.54 236.88 80.16 C 240.89 83.70 247.00 83.94 251.39 80.95 C 250.77 80.03 250.15 79.10 249.54 78.18 C 249.78 72.16 249.52 66.12 250.10 60.11 C 250.33 57.22 250.46 53.93 248.52 51.55 C 245.07 49.49 239.84 49.60 236.89 52.51 C 241.04 54.66 240.18 59.74 239.79 63.58 C 236.34 60.18 233.39 56.33 230.68 52.34 C 227.15 47.17 219.60 48.86 214.91 51.40 M 263.16 51.87 C 253.87 56.14 251.34 69.63 257.66 77.40 C 263.97 84.75 276.78 85.89 283.61 78.63 C 287.76 74.98 288.79 69.20 292.50 65.22 C 285.64 63.45 278.52 64.55 271.54 64.61 C 271.34 65.97 271.39 67.34 271.75 68.66 C 273.35 68.95 274.94 69.28 276.51 69.71 C 277.68 75.02 270.71 75.51 267.36 73.71 C 262.53 71.36 262.51 63.70 267.11 61.09 C 271.79 58.32 277.14 61.43 282.03 61.50 C 286.41 60.15 287.59 55.23 288.03 51.22 C 279.76 52.30 271.10 48.23 263.16 51.87 M 359.41 72.57 C 357.47 74.03 355.81 76.45 356.34 78.99 C 357.11 83.10 362.12 85.73 365.94 84.01 C 369.37 83.00 371.35 78.56 369.54 75.40 C 368.03 71.48 362.76 70.37 359.41 72.57 M 361.97 88.80 C 354.89 88.19 347.67 87.44 340.65 88.89 C 337.85 89.71 334.87 90.84 333.02 93.22 C 329.60 97.35 330.12 104.27 334.49 107.57 C 340.55 112.38 349.01 114.83 352.85 122.05 C 354.42 125.92 348.79 127.57 346.09 126.02 C 341.63 123.32 339.16 117.87 333.82 116.45 C 328.88 118.78 331.01 125.20 333.55 128.61 C 339.56 138.93 355.08 141.96 364.32 134.31 C 369.23 129.97 372.09 121.24 366.89 116.04 C 362.18 111.28 356.03 108.29 351.04 103.87 C 349.74 103.07 350.30 101.48 350.20 100.26 C 355.12 99.08 360.33 102.01 365.14 100.08 C 369.75 97.63 369.61 91.67 368.52 87.26 C 366.48 88.23 364.28 89.14 361.97 88.80 M 134.95 98.91 C 137.62 102.09 142.10 101.45 145.79 101.43 C 145.97 111.65 145.67 121.87 145.93 132.08 C 146.04 135.72 149.38 138.65 153.01 138.36 C 156.36 138.30 161.35 137.58 161.99 133.52 C 160.37 132.51 158.62 131.07 158.79 128.93 C 158.67 120.57 158.84 112.21 158.73 103.84 C 160.76 102.34 163.44 100.97 165.95 102.20 C 168.12 102.80 169.45 104.68 170.95 106.21 C 173.92 101.30 175.07 92.27 168.58 89.72 C 159.84 87.49 150.79 89.40 141.92 89.23 C 139.74 89.20 137.74 88.22 135.81 87.33 C 133.87 90.80 133.40 95.22 134.95 98.91 M 292.17 91.87 C 295.20 94.21 296.53 98.37 294.86 101.94 C 290.91 110.96 286.29 119.72 283.20 129.09 C 281.79 132.58 284.06 137.27 287.92 137.82 C 291.15 138.51 294.90 138.57 297.81 136.83 C 298.04 134.75 295.56 132.52 297.48 130.54 C 300.83 127.76 305.26 126.98 309.43 126.31 C 310.71 130.26 311.98 134.89 315.87 137.06 C 320.98 140.17 327.83 137.67 331.17 133.08 C 329.71 131.36 328.43 129.48 327.56 127.39 C 323.47 117.85 320.78 107.80 317.82 97.86 C 316.76 94.23 314.80 90.34 311.03 88.94 C 304.78 86.33 297.78 88.78 292.17 91.87 M 221.20 93.29 C 222.19 95.10 223.85 96.77 223.85 98.95 C 223.78 108.96 223.82 118.96 223.65 128.96 C 223.63 132.66 224.87 137.49 228.97 138.53 C 233.74 139.88 238.21 137.28 242.09 134.83 C 240.76 133.63 239.41 132.46 238.22 131.12 C 238.72 127.56 237.04 122.90 240.05 120.20 C 243.63 123.86 243.40 130.00 247.41 133.42 C 249.32 135.18 251.76 136.14 254.21 136.88 C 254.83 130.72 258.40 125.44 261.31 120.16 C 261.62 120.17 262.23 120.19 262.53 120.21 C 264.13 124.96 262.70 130.11 263.43 135.01 C 264.16 137.06 266.32 138.15 268.37 138.42 C 273.06 139.03 278.09 137.96 281.89 135.07 C 280.65 132.79 277.79 131.12 277.99 128.09 C 277.70 117.08 278.12 106.06 277.80 95.05 C 277.53 90.86 272.91 88.39 269.07 88.92 C 263.67 89.72 258.39 91.10 253.07 92.31 C 254.43 93.28 255.73 94.37 256.52 95.89 C 254.65 99.24 252.80 102.61 250.79 105.88 C 248.75 106.05 248.64 103.46 247.69 102.22 C 244.89 97.26 241.87 91.27 236.01 89.51 C 230.82 88.77 225.85 91.28 221.20 93.29 M 189.41 90.70 C 185.94 91.74 182.65 93.47 179.99 95.94 C 172.80 102.18 170.59 112.88 173.13 121.82 C 176.14 131.79 186.89 138.07 197.01 137.48 C 205.09 136.77 212.72 132.10 217.07 125.27 C 223.04 115.95 221.47 102.39 213.03 95.07 C 206.80 89.24 197.32 87.96 189.41 90.70 M 70.70 139.69 C 68.18 142.23 64.23 145.15 60.92 142.20 C 60.49 143.57 60.43 145.00 60.71 146.41 C 63.32 146.14 65.98 145.88 68.45 144.94 C 69.82 145.75 71.40 145.97 72.95 146.20 C 73.31 145.76 74.04 144.87 74.41 144.43 C 74.92 144.88 75.44 145.32 75.96 145.77 C 76.56 145.38 77.16 144.99 77.75 144.60 C 78.49 145.03 79.22 145.46 79.95 145.89 C 80.61 145.36 81.26 144.82 81.91 144.29 C 85.89 144.95 89.78 146.13 93.89 145.68 C 95.84 145.63 97.80 145.66 99.76 145.75 C 97.45 143.89 95.55 141.53 93.06 139.90 C 89.81 137.82 85.79 138.57 82.18 137.79 C 78.32 137.19 73.66 136.47 70.70 139.69 Z" />
<path fill="#ffffff" opacity="1.00" d=" M 98.12 53.60 C 98.70 53.61 99.88 53.63 100.47 53.64 C 98.96 54.78 97.44 55.91 95.93 57.06 C 96.71 55.94 97.35 54.73 98.12 53.60 Z" />
<path fill="#ffffff" opacity="1.00" d=" M 190.15 66.86 C 190.49 65.04 192.01 63.86 193.15 62.54 C 194.83 63.61 196.03 65.15 196.45 67.13 C 194.80 68.68 190.99 69.64 190.15 66.86 Z" />
<path fill="#ffffff" opacity="1.00" d=" M 361.19 73.31 C 364.61 71.26 369.53 75.11 368.61 78.94 C 367.95 82.63 362.88 84.78 360.02 82.02 C 356.79 79.94 357.63 74.56 361.19 73.31 M 360.61 74.39 C 360.63 76.79 360.64 79.20 360.65 81.61 L 362.05 81.54 C 362.16 80.33 362.31 79.13 362.50 77.93 C 363.76 79.31 364.42 81.75 366.67 81.76 C 366.32 81.06 365.63 79.65 365.29 78.95 C 366.45 77.67 367.15 76.28 366.42 74.53 C 364.48 74.43 362.54 74.38 360.61 74.39 Z" />
<path fill="#ffffff" opacity="1.00" d=" M 103.48 96.65 C 104.23 96.45 105.74 96.05 106.49 95.85 C 106.01 96.73 105.49 97.61 104.96 98.47 C 100.60 101.01 95.93 103.35 90.75 103.30 L 90.43 101.80 C 94.54 99.92 99.67 100.37 103.19 97.31 L 103.48 96.65 Z" />
<path fill="#ffffff" opacity="1.00" d=" M 188.93 117.92 C 190.49 111.59 192.61 104.75 197.93 100.54 C 200.50 100.39 203.49 101.10 204.31 103.90 C 204.76 110.58 202.44 117.24 198.81 122.79 C 197.54 124.68 195.47 126.69 192.99 126.13 C 189.17 125.80 188.34 120.99 188.93 117.92 Z" />
<path fill="#ffffff" opacity="1.00" d=" M 301.63 116.24 C 300.19 112.96 302.30 109.61 304.63 107.41 C 305.83 109.44 307.90 111.40 307.43 113.97 C 307.29 116.78 303.59 117.82 301.63 116.24 Z" />
</g>
<g id="#821918ff">
<path fill="#821918" opacity="1.00" d=" M 65.40 17.06 C 63.65 14.74 68.15 13.81 67.17 16.63 C 66.73 16.74 65.84 16.95 65.40 17.06 Z" />
</g>
<g id="#f3f8f6ff">
<path fill="#f3f8f6" opacity="1.00" d=" M 48.26 15.80 C 48.93 16.36 50.27 17.48 50.93 18.04 L 50.55 16.23 C 52.05 16.25 53.56 16.30 55.07 16.23 C 52.61 16.75 50.47 18.18 49.13 20.31 C 48.75 20.37 48.00 20.49 47.62 20.56 C 47.63 20.03 47.66 18.96 47.67 18.43 C 47.82 17.77 48.12 16.46 48.26 15.80 Z" />
<path fill="#f3f8f6" opacity="1.00" d=" M 88.89 16.29 C 90.81 16.48 92.71 16.78 94.60 17.16 C 98.40 18.70 101.88 20.88 105.51 22.75 C 105.55 23.21 105.63 24.13 105.67 24.59 C 105.01 24.56 103.69 24.49 103.03 24.45 C 102.41 23.87 101.81 23.27 101.22 22.66 C 100.43 21.55 99.23 20.83 97.87 20.76 C 95.23 19.89 92.83 18.49 90.40 17.19 C 90.02 16.97 89.27 16.52 88.89 16.29 Z" />
<path fill="#f3f8f6" opacity="1.00" d=" M 57.28 30.17 C 59.65 30.56 61.37 32.71 62.08 34.90 C 59.69 34.34 56.93 33.12 57.28 30.17 Z" />
<path fill="#f3f8f6" opacity="1.00" d=" M 97.13 39.05 C 100.44 37.35 104.06 36.43 107.70 35.71 C 107.44 36.29 106.93 37.46 106.67 38.04 C 103.59 38.90 100.33 39.84 97.13 39.05 Z" />
<path fill="#f3f8f6" opacity="1.00" d=" M 89.92 40.77 C 90.84 40.54 91.77 40.32 92.70 40.13 C 93.04 40.90 93.37 41.67 93.71 42.44 L 93.05 42.84 C 92.19 42.54 91.35 42.19 90.53 41.82 L 89.92 40.77 Z" />
<path fill="#f3f8f6" opacity="1.00" d=" M 102.00 69.01 C 104.32 67.94 106.76 67.14 109.22 66.45 C 109.77 67.12 110.32 67.80 110.87 68.47 C 111.42 70.84 113.12 73.15 112.46 75.65 C 111.97 75.50 110.98 75.20 110.48 75.05 C 108.23 74.40 105.92 73.12 103.52 73.72 C 102.90 73.88 101.67 74.21 101.05 74.37 L 101.16 73.22 C 103.34 72.37 105.45 71.31 106.90 69.41 C 105.27 69.28 103.63 69.14 102.00 69.01 Z" />
<path fill="#f3f8f6" opacity="1.00" d=" M 362.31 75.99 C 363.59 75.17 364.40 75.41 364.72 76.69 C 363.42 77.50 362.62 77.26 362.31 75.99 Z" />
<path fill="#f3f8f6" opacity="1.00" d=" M 48.71 100.88 C 50.20 97.69 52.93 101.22 51.49 103.38 C 50.49 102.62 49.52 101.83 48.71 100.88 Z" />
<path fill="#f3f8f6" opacity="1.00" d=" M 91.86 130.02 C 94.15 130.74 96.34 131.74 98.59 132.58 C 98.75 133.70 98.92 134.83 99.11 135.96 C 95.65 135.56 93.67 132.64 91.86 130.02 Z" />
</g>
<g id="#27221cff">
<path fill="#27221c" opacity="1.00" d=" M 54.99 19.73 C 55.83 17.21 58.63 16.29 61.04 16.18 C 60.23 17.39 59.29 18.51 58.40 19.66 C 57.26 19.69 56.13 19.71 54.99 19.73 Z" />
<path fill="#27221c" opacity="1.00" d=" M 74.98 70.38 L 75.68 70.00 C 79.13 70.27 82.85 72.12 83.71 75.76 C 81.94 75.33 80.27 74.64 78.67 73.81 C 77.79 73.43 76.87 73.30 75.89 73.43 L 75.87 73.72 C 75.83 74.21 75.74 75.19 75.70 75.67 C 73.92 77.37 71.81 78.72 69.25 78.51 C 68.44 78.91 66.83 79.72 66.03 80.12 C 65.73 74.43 71.57 73.33 74.98 70.38 M 71.33 75.10 C 70.71 76.50 71.13 76.96 72.58 76.49 C 73.20 75.09 72.78 74.62 71.33 75.10 Z" />
</g>
<g id="#db111aff">
<path fill="#db111a" opacity="1.00" d=" M 76.63 15.75 C 78.21 16.54 80.01 16.40 81.72 16.42 C 82.26 17.08 82.80 17.74 83.34 18.40 C 83.80 18.16 84.25 17.90 84.68 17.62 C 86.60 18.99 88.70 18.95 90.40 17.19 C 90.55 18.97 90.76 20.74 91.00 22.50 C 92.26 22.39 93.53 22.27 94.80 22.17 C 94.43 22.47 93.68 23.08 93.31 23.38 C 94.25 24.52 95.19 25.65 96.14 26.78 C 97.31 25.92 98.48 25.06 99.65 24.19 C 99.27 26.74 99.51 29.35 101.03 31.52 C 101.91 31.44 102.79 31.37 103.67 31.30 C 103.50 32.20 103.32 33.09 103.15 33.99 C 100.87 34.41 98.66 35.12 96.54 36.02 C 95.59 36.15 94.64 36.27 93.70 36.39 C 92.51 36.17 91.32 35.92 90.14 35.65 C 91.13 35.10 92.13 34.57 93.13 34.03 C 91.27 33.46 89.94 32.05 88.77 30.56 C 87.61 30.63 86.45 30.69 85.30 30.77 C 85.10 30.35 84.71 29.53 84.51 29.11 C 85.13 27.75 85.62 26.34 86.08 24.91 C 84.40 26.02 82.83 27.28 81.31 28.59 C 80.77 27.13 80.23 25.74 79.71 24.27 C 79.00 24.89 78.29 25.52 77.59 26.15 C 77.62 24.64 77.94 23.08 77.56 21.60 C 76.45 20.25 74.99 19.25 73.65 18.15 C 74.64 17.35 75.63 16.55 76.63 15.75 Z" />
</g>
<g id="#e95329ff">
<path fill="#e95329" opacity="1.00" d=" M 97.02 16.37 L 97.35 16.44 C 97.46 16.46 97.68 16.50 97.79 16.51 C 98.31 16.59 99.35 16.74 99.87 16.82 C 100.14 18.51 101.87 19.08 103.36 18.66 C 104.99 19.50 106.64 20.35 108.24 21.27 L 107.36 22.33 C 108.37 24.15 109.45 25.95 110.14 27.93 C 107.31 27.93 104.95 26.41 103.03 24.45 C 103.69 24.49 105.01 24.56 105.67 24.59 C 105.63 24.13 105.55 23.21 105.51 22.75 C 101.88 20.88 98.40 18.70 94.60 17.16 C 95.20 16.96 96.41 16.57 97.02 16.37 Z" />
</g>
<g id="#e9e11cff">
<path fill="#e9e11c" opacity="1.00" d=" M 97.35 16.44 C 97.46 16.46 97.68 16.50 97.79 16.51 C 97.68 16.50 97.46 16.46 97.35 16.44 Z" />
<path fill="#e9e11c" opacity="1.00" d=" M 99.87 16.82 C 101.32 16.66 102.66 17.37 103.36 18.66 C 101.87 19.08 100.14 18.51 99.87 16.82 Z" />
<path fill="#e9e11c" opacity="1.00" d=" M 97.87 20.76 C 99.23 20.83 100.43 21.55 101.22 22.66 C 99.84 23.33 97.69 22.51 97.87 20.76 Z" />
<path fill="#e9e11c" opacity="1.00" d=" M 85.42 68.04 C 85.92 68.20 86.94 68.50 87.44 68.65 C 89.69 71.14 92.08 73.63 92.99 76.96 C 93.88 79.30 95.87 83.19 92.80 84.70 C 92.86 84.03 93.00 82.68 93.06 82.01 C 93.04 81.61 93.00 80.81 92.98 80.41 L 92.03 79.04 C 89.89 75.33 88.70 71.00 85.42 68.04 Z" />
<path fill="#e9e11c" opacity="1.00" d=" M 75.87 73.72 L 75.89 73.43 C 75.98 74.10 76.16 75.43 76.25 76.10 C 77.12 75.72 77.98 75.35 78.85 74.98 C 78.94 75.86 79.12 77.61 79.21 78.48 C 80.81 77.89 82.42 77.33 84.01 76.74 C 84.44 77.00 85.28 77.52 85.71 77.78 C 86.23 77.32 87.28 76.41 87.81 75.95 C 87.41 78.14 87.72 80.51 90.28 81.05 C 89.94 82.54 89.72 84.07 89.50 85.59 C 88.05 85.83 86.61 86.11 85.17 86.35 C 84.88 87.03 84.59 87.71 84.31 88.39 C 82.26 89.05 80.54 90.34 78.93 91.73 C 74.80 91.34 70.61 93.10 66.76 90.71 C 64.67 89.92 62.52 89.35 60.36 88.81 C 61.04 91.62 61.90 94.38 63.05 97.03 C 60.84 93.58 59.94 89.55 58.13 85.91 C 56.60 83.07 56.79 79.76 56.58 76.65 C 57.58 75.19 58.84 73.91 60.30 72.91 L 60.34 74.86 C 60.40 78.26 60.28 81.97 62.51 84.79 C 66.29 81.56 70.99 79.88 75.50 78.00 C 75.55 77.42 75.65 76.25 75.70 75.67 C 75.74 75.19 75.83 74.21 75.87 73.72 M 81.12 78.05 C 81.22 79.45 81.32 80.85 81.43 82.25 C 79.89 82.34 78.38 82.63 76.91 83.08 C 76.11 84.48 75.26 85.85 74.32 87.16 C 74.31 86.57 74.29 85.41 74.29 84.82 L 72.72 84.89 C 74.99 82.91 77.99 81.84 79.86 79.39 C 76.20 79.09 72.63 80.25 69.10 81.04 C 67.39 81.47 65.36 83.26 67.00 85.02 C 66.13 85.09 64.39 85.24 63.52 85.31 C 65.61 87.48 68.92 85.94 71.59 86.41 C 71.64 87.08 71.73 88.40 71.78 89.06 C 71.57 88.46 71.16 87.25 70.95 86.65 C 69.42 86.76 67.88 86.88 66.35 87.00 C 66.51 87.64 66.85 88.90 67.02 89.54 C 69.35 88.79 70.86 90.90 72.98 91.00 C 74.88 88.82 79.03 90.72 79.14 87.02 C 83.39 86.85 83.85 81.89 84.45 78.63 C 83.61 78.49 81.95 78.20 81.12 78.05 Z" />
<path fill="#e9e11c" opacity="1.00" d=" M 98.63 121.28 C 101.76 119.99 104.17 117.51 106.93 115.60 C 106.85 116.31 106.70 117.73 106.62 118.44 C 106.00 118.51 105.38 118.59 104.77 118.66 C 104.07 119.63 103.38 120.60 102.69 121.57 L 102.45 121.63 C 101.50 121.54 99.58 121.37 98.63 121.28 Z" />
</g>
<g id="#e52225ff">
<path fill="#e52225" opacity="1.00" d=" M 90.40 17.19 C 92.83 18.49 95.23 19.89 97.87 20.76 C 97.69 22.51 99.84 23.33 101.22 22.66 C 101.81 23.27 102.41 23.87 103.03 24.45 C 104.95 26.41 107.31 27.93 110.14 27.93 C 109.45 25.95 108.37 24.15 107.36 22.33 L 108.24 21.27 C 110.54 22.58 112.66 24.19 114.96 25.51 C 115.37 25.49 116.19 25.46 116.60 25.44 C 119.29 27.26 121.30 29.84 123.42 32.24 C 120.26 31.81 117.07 32.05 114.02 32.98 C 114.18 33.33 114.50 34.03 114.66 34.38 C 115.07 35.90 116.01 36.21 117.46 35.32 C 117.31 35.97 117.00 37.25 116.84 37.89 C 116.24 37.41 115.04 36.45 114.44 35.98 C 114.49 37.13 114.58 39.43 114.62 40.58 C 116.16 40.50 117.70 40.39 119.24 40.25 C 119.32 39.65 119.48 38.45 119.55 37.85 C 119.94 38.39 120.35 38.93 120.77 39.46 C 123.83 38.56 126.71 40.39 129.76 40.43 C 129.80 41.19 129.84 41.96 129.86 42.73 C 127.29 41.86 124.73 40.78 121.99 40.65 C 118.88 40.95 115.98 42.22 113.07 43.27 C 113.06 42.98 113.03 42.38 113.02 42.08 C 115.29 40.71 113.61 38.60 112.89 36.98 C 114.65 36.65 113.88 34.12 112.22 34.75 C 112.42 34.31 112.80 33.43 112.99 32.99 C 109.69 33.11 106.39 33.36 103.15 33.99 C 103.32 33.09 103.50 32.20 103.67 31.30 C 102.79 31.37 101.91 31.44 101.03 31.52 C 99.51 29.35 99.27 26.74 99.65 24.19 C 98.48 25.06 97.31 25.92 96.14 26.78 C 95.19 25.65 94.25 24.52 93.31 23.38 C 93.68 23.08 94.43 22.47 94.80 22.17 C 93.53 22.27 92.26 22.39 91.00 22.50 C 90.76 20.74 90.55 18.97 90.40 17.19 Z" />
</g>
<g id="#ebea9bff">
<path fill="#ebea9b" opacity="1.00" d=" M 60.98 21.63 C 61.72 20.42 62.45 20.46 63.16 21.76 C 63.04 22.48 62.80 23.94 62.68 24.66 C 61.12 25.36 61.02 22.58 60.98 21.63 Z" />
</g>
<g id="#e9d33eff">
<path fill="#e9d33e" opacity="1.00" d=" M 63.98 27.80 C 60.62 29.77 56.27 22.40 60.98 21.63 C 61.02 22.58 61.12 25.36 62.68 24.66 C 62.80 23.94 63.04 22.48 63.16 21.76 C 66.02 21.95 66.48 26.93 63.98 27.80 Z" />
</g>
<g id="#781e17ff">
<path fill="#781e17" opacity="1.00" d=" M 50.94 27.63 C 51.51 26.68 52.11 25.74 52.78 24.85 C 54.41 26.97 54.39 29.56 54.01 32.09 C 53.02 32.49 52.01 32.87 51.00 33.24 C 51.60 31.56 52.20 29.89 52.82 28.22 C 52.35 28.07 51.41 27.78 50.94 27.63 Z" />
</g>
<g id="#e30311ff">
<path fill="#e30311" opacity="1.00" d=" M 121.47 26.33 C 148.62 25.90 175.79 26.20 202.95 26.40 C 251.95 26.23 300.95 26.65 349.95 26.65 C 359.89 26.86 369.54 31.36 376.33 38.59 C 383.04 44.71 388.07 52.95 389.08 62.09 C 389.69 70.71 389.11 79.34 389.19 87.97 C 389.04 99.98 389.21 112.00 389.07 124.02 C 389.02 131.36 386.10 138.29 382.28 144.43 C 377.61 148.71 373.59 153.79 368.06 157.03 C 362.11 160.84 354.99 162.46 347.98 162.42 C 310.33 162.28 272.69 162.61 235.04 162.15 C 199.37 162.08 163.69 162.39 128.02 161.86 C 104.33 161.89 80.64 161.84 56.96 161.89 C 49.32 161.89 41.54 160.04 35.11 155.80 C 29.99 152.50 26.17 147.67 21.71 143.60 C 18.13 137.67 15.19 131.13 15.16 124.07 C 14.95 104.74 15.15 85.40 15.07 66.06 C 14.99 60.12 16.80 54.36 19.21 49.00 C 20.63 46.54 22.02 43.87 24.28 42.09 C 20.34 50.17 17.37 58.94 17.36 68.01 C 17.37 78.69 17.74 89.46 19.93 99.95 C 20.18 101.46 21.14 102.69 22.03 103.89 C 22.39 112.84 20.88 122.21 24.32 130.75 C 29.21 144.71 43.26 154.39 57.92 154.85 C 89.62 155.11 121.33 154.59 153.02 155.17 C 214.03 154.96 275.03 155.54 336.04 155.41 C 344.18 155.44 352.75 155.90 360.28 152.21 C 372.93 146.76 381.70 133.71 382.07 119.95 C 382.15 105.29 382.06 90.64 382.11 75.98 C 382.16 69.63 382.26 63.03 379.68 57.09 C 374.52 43.42 360.57 33.77 345.97 33.65 C 295.32 33.69 244.68 33.21 194.03 33.39 C 171.87 33.10 149.72 33.13 127.56 33.13 C 125.65 30.76 123.68 28.43 121.47 26.33 Z" />
</g>
<g id="#e84c24ff">
<path fill="#e84c24" opacity="1.00" d=" M 120.77 33.25 C 125.59 32.15 128.19 36.72 129.76 40.43 C 126.71 40.39 123.83 38.56 120.77 39.46 C 120.35 38.93 119.94 38.39 119.55 37.85 L 119.14 37.28 C 121.32 36.79 124.82 36.90 125.20 34.01 C 124.17 34.38 123.14 34.77 122.13 35.21 C 121.79 34.72 121.11 33.74 120.77 33.25 Z" />
<path fill="#e84c24" opacity="1.00" d=" M 107.71 114.99 C 109.14 115.10 110.58 115.21 112.01 115.32 C 110.24 116.79 108.68 118.48 107.14 120.18 C 105.66 120.68 104.19 121.17 102.69 121.57 C 103.38 120.60 104.07 119.63 104.77 118.66 C 105.38 118.59 106.00 118.51 106.62 118.44 C 106.70 117.73 106.85 116.31 106.93 115.60 C 107.12 115.45 107.51 115.14 107.71 114.99 Z" />
</g>
<g id="#f1f5faff">
<path fill="#f1f5fa" opacity="1.00" d=" M 114.66 34.38 L 115.55 34.28 C 116.03 34.54 116.98 35.06 117.46 35.32 C 116.01 36.21 115.07 35.90 114.66 34.38 Z" />
<path fill="#f1f5fa" opacity="1.00" d=" M 104.31 65.26 C 103.20 62.34 107.42 62.88 106.02 65.48 C 105.59 65.43 104.74 65.32 104.31 65.26 Z" />
<path fill="#f1f5fa" opacity="1.00" d=" M 75.89 73.43 C 76.87 73.30 77.79 73.43 78.67 73.81 L 78.85 74.98 C 77.98 75.35 77.12 75.72 76.25 76.10 C 76.16 75.43 75.98 74.10 75.89 73.43 Z" />
<path fill="#f1f5fa" opacity="1.00" d=" M 43.14 89.78 C 44.10 89.53 45.06 89.28 46.02 89.03 L 46.98 88.93 C 46.78 89.44 46.39 90.45 46.19 90.96 C 46.03 91.51 45.71 92.61 45.55 93.16 C 46.04 94.24 46.55 95.31 47.07 96.38 C 47.56 97.44 47.79 98.58 47.61 99.75 C 46.19 98.42 44.82 97.02 43.29 95.83 C 42.85 93.83 42.77 91.79 43.14 89.78 Z" />
</g>
<g id="#f0e32cff">
<path fill="#f0e32c" opacity="1.00" d=" M 115.55 34.28 C 116.01 34.26 116.93 34.23 117.38 34.22 C 118.21 34.93 119.03 35.64 119.84 36.36 C 120.41 36.07 121.56 35.50 122.13 35.21 C 123.14 34.77 124.17 34.38 125.20 34.01 C 124.82 36.90 121.32 36.79 119.14 37.28 C 118.72 36.79 117.88 35.81 117.46 35.32 C 116.98 35.06 116.03 34.54 115.55 34.28 Z" />
<path fill="#f0e32c" opacity="1.00" d=" M 44.53 68.99 C 46.78 66.79 48.72 62.80 52.43 63.53 C 52.48 64.95 52.32 66.35 51.95 67.73 C 50.06 69.60 47.75 70.95 45.70 72.62 C 45.40 71.71 44.82 69.90 44.53 68.99 Z" />
<path fill="#f0e32c" opacity="1.00" d=" M 53.31 105.69 C 54.09 105.58 55.63 105.34 56.40 105.22 C 57.04 105.96 57.70 106.68 58.36 107.40 C 57.59 107.44 56.03 107.53 55.25 107.57 C 54.57 106.98 53.93 106.35 53.31 105.69 Z" />
</g>
<g id="#e53226ff">
<path fill="#e53226" opacity="1.00" d=" M 107.70 35.71 C 109.19 35.34 110.71 35.04 112.22 34.75 L 112.02 35.49 C 111.12 37.74 112.53 39.94 113.02 42.08 C 113.03 42.38 113.06 42.98 113.07 43.27 C 110.99 44.07 108.79 44.40 106.60 44.70 C 106.43 45.16 106.09 46.09 105.92 46.55 C 104.72 46.69 103.53 46.84 102.33 46.98 C 100.61 46.92 98.90 46.79 97.19 46.64 C 96.63 44.73 96.04 42.82 95.42 40.93 C 97.02 41.28 97.58 40.66 97.10 39.06 L 97.13 39.05 C 100.33 39.84 103.59 38.90 106.67 38.04 C 106.93 37.46 107.44 36.29 107.70 35.71 Z" />
</g>
<g id="#e87e2eff">
<path fill="#e87e2e" opacity="1.00" d=" M 112.22 34.75 C 113.88 34.12 114.65 36.65 112.89 36.98 C 112.67 36.61 112.23 35.87 112.02 35.49 L 112.22 34.75 Z" />
</g>
<g id="#48221aff">
<path fill="#48221a" opacity="1.00" d=" M 117.46 35.32 C 117.88 35.81 118.72 36.79 119.14 37.28 L 119.55 37.85 C 119.48 38.45 119.32 39.65 119.24 40.25 C 117.70 40.39 116.16 40.50 114.62 40.58 C 114.58 39.43 114.49 37.13 114.44 35.98 C 115.04 36.45 116.24 37.41 116.84 37.89 C 117.00 37.25 117.31 35.97 117.46 35.32 Z" />
</g>
<g id="#e6dfadff">
<path fill="#e6dfad" opacity="1.00" d=" M 95.24 39.12 C 95.71 39.10 96.63 39.07 97.10 39.06 C 97.58 40.66 97.02 41.28 95.42 40.93 C 95.38 40.47 95.29 39.57 95.24 39.12 Z" />
</g>
<g id="#e73129ff">
<path fill="#e73129" opacity="1.00" d=" M 77.89 45.60 C 81.68 43.49 85.83 42.14 89.92 40.77 L 90.53 41.82 C 90.53 42.32 90.54 43.31 90.54 43.81 C 89.39 43.59 88.24 43.37 87.09 43.16 C 87.87 45.22 88.67 47.27 89.44 49.33 C 83.62 51.88 78.02 55.14 71.86 56.80 C 73.23 56.22 74.55 55.55 75.88 54.89 C 76.09 51.39 78.18 48.63 79.71 45.64 L 77.89 45.60 Z" />
</g>
<g id="#602520ff">
<path fill="#602520" opacity="1.00" d=" M 90.53 41.82 C 91.35 42.19 92.19 42.54 93.05 42.84 C 93.38 44.80 94.14 47.05 91.92 48.18 C 91.09 48.56 90.27 48.94 89.44 49.33 C 88.67 47.27 87.87 45.22 87.09 43.16 C 88.24 43.37 89.39 43.59 90.54 43.81 C 90.54 43.31 90.53 42.32 90.53 41.82 Z" />
</g>
<g id="#9e4a1dff">
<path fill="#9e4a1d" opacity="1.00" d=" M 93.05 42.84 L 93.71 42.44 C 94.39 44.11 95.03 45.80 95.65 47.49 C 94.72 47.66 92.85 48.01 91.92 48.18 C 94.14 47.05 93.38 44.80 93.05 42.84 Z" />
</g>
<g id="#e1131fff">
<path fill="#e1131f" opacity="1.00" d=" M 114.22 47.15 C 117.49 46.51 120.81 46.01 123.97 44.93 C 124.16 46.06 124.33 47.20 124.46 48.35 C 120.74 52.00 119.45 57.43 115.61 60.89 C 116.41 56.21 114.28 51.79 114.22 47.15 Z" />
<path fill="#e1131f" opacity="1.00" d=" M 359.41 72.57 C 362.76 70.37 368.03 71.48 369.54 75.40 C 371.35 78.56 369.37 83.00 365.94 84.01 C 362.12 85.73 357.11 83.10 356.34 78.99 C 355.81 76.45 357.47 74.03 359.41 72.57 M 361.19 73.31 C 357.63 74.56 356.79 79.94 360.02 82.02 C 362.88 84.78 367.95 82.63 368.61 78.94 C 369.53 75.11 364.61 71.26 361.19 73.31 Z" />
</g>
<g id="#ae3418ff">
<path fill="#ae3418" opacity="1.00" d=" M 127.82 44.30 C 131.61 45.39 129.43 49.32 128.77 51.84 L 128.55 51.74 C 128.18 51.59 127.44 51.28 127.08 51.13 C 127.32 48.85 127.56 46.57 127.82 44.30 Z" />
</g>
<g id="#e9e227ff">
<path fill="#e9e227" opacity="1.00" d=" M 67.82 50.85 C 71.40 49.57 74.61 47.48 77.89 45.60 L 79.71 45.64 C 78.18 48.63 76.09 51.39 75.88 54.89 C 74.55 55.55 73.23 56.22 71.86 56.80 C 71.45 56.88 70.63 57.06 70.22 57.15 C 70.10 56.66 69.85 55.68 69.72 55.19 C 69.43 55.24 68.84 55.36 68.55 55.42 C 68.51 54.72 68.43 53.32 68.39 52.62 L 67.22 52.84 C 67.37 52.35 67.67 51.35 67.82 50.85 Z" />
</g>
<g id="#e52f26ff">
<path fill="#e52f26" opacity="1.00" d=" M 102.33 46.98 C 103.53 46.84 104.72 46.69 105.92 46.55 C 108.04 49.98 110.46 53.27 111.89 57.08 C 110.86 56.85 109.84 56.61 108.82 56.36 C 108.28 55.14 107.73 53.93 107.21 52.71 C 104.36 52.66 101.50 52.60 98.66 52.39 C 97.61 51.77 95.04 50.52 95.53 53.25 C 90.69 56.52 84.62 57.44 80.20 61.39 C 79.90 61.40 79.29 61.42 78.98 61.43 C 79.82 61.89 80.65 62.36 81.48 62.84 C 77.75 62.03 74.20 63.60 70.82 64.96 C 67.25 66.50 63.85 68.80 61.80 72.17 C 61.28 73.05 60.80 73.95 60.34 74.86 L 60.30 72.91 C 58.84 73.91 57.58 75.19 56.58 76.65 C 55.31 77.59 53.31 78.13 53.08 79.94 C 52.49 83.58 54.34 86.91 55.28 90.30 C 51.93 86.09 52.09 80.60 52.71 75.55 C 57.50 69.96 62.40 64.26 69.16 60.96 C 78.19 56.06 87.70 52.01 97.51 48.96 C 99.11 48.29 100.70 47.58 102.33 46.98 Z" />
</g>
<g id="#981e16ff">
<path fill="#981e16" opacity="1.00" d=" M 89.44 49.33 C 90.27 48.94 91.09 48.56 91.92 48.18 C 92.85 48.01 94.72 47.66 95.65 47.49 C 96.11 47.86 97.04 48.59 97.51 48.96 C 87.70 52.01 78.19 56.06 69.16 60.96 C 68.05 59.72 66.95 58.48 65.87 57.21 L 66.60 57.24 C 67.67 57.47 68.74 57.72 69.81 57.98 L 70.22 57.15 C 70.63 57.06 71.45 56.88 71.86 56.80 C 78.02 55.14 83.62 51.88 89.44 49.33 Z" />
</g>
<g id="#e30913ff">
<path fill="#e30913" opacity="1.00" d=" M 154.96 50.54 C 158.27 49.71 161.56 48.71 164.94 48.17 C 167.80 47.53 171.08 49.90 170.81 52.96 C 170.95 60.32 170.70 67.68 170.89 75.04 C 170.78 77.23 172.39 78.79 173.70 80.32 C 170.69 82.65 166.43 83.64 162.85 82.14 C 160.45 80.15 161.74 76.66 161.43 73.98 C 161.17 72.80 162.07 70.19 160.15 70.20 C 157.98 73.78 156.03 77.61 155.42 81.79 C 153.29 80.75 150.85 79.77 149.74 77.52 C 148.62 75.06 147.72 72.51 146.63 70.04 C 144.33 70.96 145.53 74.12 145.22 76.02 C 144.69 78.05 146.45 78.99 147.79 80.04 C 145.24 81.71 142.23 84.00 139.01 82.77 C 136.57 82.11 135.75 79.18 135.64 76.95 C 135.66 69.96 135.68 62.97 135.72 55.98 C 135.94 54.20 134.83 52.74 134.04 51.26 C 137.42 49.85 141.28 47.46 144.97 49.16 C 148.64 51.70 150.47 55.97 152.42 59.83 C 155.14 59.04 155.47 55.04 157.01 52.90 C 156.31 52.13 155.62 51.34 154.96 50.54 Z" />
<path fill="#e30913" opacity="1.00" d=" M 183.98 51.17 C 188.45 49.85 193.26 47.43 197.94 49.33 C 200.53 50.01 202.45 52.13 203.37 54.59 C 206.62 63.05 208.72 72.14 214.05 79.63 C 211.12 82.40 206.72 83.66 202.85 82.25 C 199.69 80.84 198.37 77.39 197.39 74.32 C 194.07 74.69 190.42 74.85 187.68 77.00 C 187.01 78.68 187.68 80.44 187.94 82.12 C 184.56 82.74 180.65 83.51 177.62 81.41 C 176.08 79.72 176.16 77.16 177.07 75.19 C 179.63 69.29 183.01 63.78 185.78 57.98 C 187.41 55.52 185.25 53.19 183.98 51.17 M 190.15 66.86 C 190.99 69.64 194.80 68.68 196.45 67.13 C 196.03 65.15 194.83 63.61 193.15 62.54 C 192.01 63.86 190.49 65.04 190.15 66.86 Z" />
<path fill="#e30913" opacity="1.00" d=" M 214.91 51.40 C 219.60 48.86 227.15 47.17 230.68 52.34 C 233.39 56.33 236.34 60.18 239.79 63.58 C 240.18 59.74 241.04 54.66 236.89 52.51 C 239.84 49.60 245.07 49.49 248.52 51.55 C 250.46 53.93 250.33 57.22 250.10 60.11 C 249.52 66.12 249.78 72.16 249.54 78.18 C 250.15 79.10 250.77 80.03 251.39 80.95 C 247.00 83.94 240.89 83.70 236.88 80.16 C 232.98 76.54 230.02 72.06 226.63 67.99 C 226.39 72.04 224.72 77.31 228.47 80.28 C 225.32 84.81 216.79 82.83 216.82 77.00 C 216.77 69.37 217.87 61.69 217.08 54.07 C 216.30 53.22 215.58 52.33 214.91 51.40 Z" />
<path fill="#e30913" opacity="1.00" d=" M 263.16 51.87 C 271.10 48.23 279.76 52.30 288.03 51.22 C 287.59 55.23 286.41 60.15 282.03 61.50 C 277.14 61.43 271.79 58.32 267.11 61.09 C 262.51 63.70 262.53 71.36 267.36 73.71 C 270.71 75.51 277.68 75.02 276.51 69.71 C 274.94 69.28 273.35 68.95 271.75 68.66 C 271.39 67.34 271.34 65.97 271.54 64.61 C 278.52 64.55 285.64 63.45 292.50 65.22 C 288.79 69.20 287.76 74.98 283.61 78.63 C 276.78 85.89 263.97 84.75 257.66 77.40 C 251.34 69.63 253.87 56.14 263.16 51.87 Z" />
<path fill="#e30913" opacity="1.00" d=" M 360.61 74.39 C 362.54 74.38 364.48 74.43 366.42 74.53 C 367.15 76.28 366.45 77.67 365.29 78.95 C 365.63 79.65 366.32 81.06 366.67 81.76 C 364.42 81.75 363.76 79.31 362.50 77.93 C 362.31 79.13 362.16 80.33 362.05 81.54 L 360.65 81.61 C 360.64 79.20 360.63 76.79 360.61 74.39 M 362.31 75.99 C 362.62 77.26 363.42 77.50 364.72 76.69 C 364.40 75.41 363.59 75.17 362.31 75.99 Z" />
<path fill="#e30913" opacity="1.00" d=" M 361.97 88.80 C 364.28 89.14 366.48 88.23 368.52 87.26 C 369.61 91.67 369.75 97.63 365.14 100.08 C 360.33 102.01 355.12 99.08 350.20 100.26 C 350.30 101.48 349.74 103.07 351.04 103.87 C 356.03 108.29 362.18 111.28 366.89 116.04 C 372.09 121.24 369.23 129.97 364.32 134.31 C 355.08 141.96 339.56 138.93 333.55 128.61 C 331.01 125.20 328.88 118.78 333.82 116.45 C 339.16 117.87 341.63 123.32 346.09 126.02 C 348.79 127.57 354.42 125.92 352.85 122.05 C 349.01 114.83 340.55 112.38 334.49 107.57 C 330.12 104.27 329.60 97.35 333.02 93.22 C 334.87 90.84 337.85 89.71 340.65 88.89 C 347.67 87.44 354.89 88.19 361.97 88.80 Z" />
<path fill="#e30913" opacity="1.00" d=" M 134.95 98.91 C 133.40 95.22 133.87 90.80 135.81 87.33 C 137.74 88.22 139.74 89.20 141.92 89.23 C 150.79 89.40 159.84 87.49 168.58 89.72 C 175.07 92.27 173.92 101.30 170.95 106.21 C 169.45 104.68 168.12 102.80 165.95 102.20 C 163.44 100.97 160.76 102.34 158.73 103.84 C 158.84 112.21 158.67 120.57 158.79 128.93 C 158.62 131.07 160.37 132.51 161.99 133.52 C 161.35 137.58 156.36 138.30 153.01 138.36 C 149.38 138.65 146.04 135.72 145.93 132.08 C 145.67 121.87 145.97 111.65 145.79 101.43 C 142.10 101.45 137.62 102.09 134.95 98.91 Z" />
<path fill="#e30913" opacity="1.00" d=" M 292.17 91.87 C 297.78 88.78 304.78 86.33 311.03 88.94 C 314.80 90.34 316.76 94.23 317.82 97.86 C 320.78 107.80 323.47 117.85 327.56 127.39 C 328.43 129.48 329.71 131.36 331.17 133.08 C 327.83 137.67 320.98 140.17 315.87 137.06 C 311.98 134.89 310.71 130.26 309.43 126.31 C 305.26 126.98 300.83 127.76 297.48 130.54 C 295.56 132.52 298.04 134.75 297.81 136.83 C 294.90 138.57 291.15 138.51 287.92 137.82 C 284.06 137.27 281.79 132.58 283.20 129.09 C 286.29 119.72 290.91 110.96 294.86 101.94 C 296.53 98.37 295.20 94.21 292.17 91.87 M 301.63 116.24 C 303.59 117.82 307.29 116.78 307.43 113.97 C 307.90 111.40 305.83 109.44 304.63 107.41 C 302.30 109.61 300.19 112.96 301.63 116.24 Z" />
<path fill="#e30913" opacity="1.00" d=" M 221.20 93.29 C 225.85 91.28 230.82 88.77 236.01 89.51 C 241.87 91.27 244.89 97.26 247.69 102.22 C 248.64 103.46 248.75 106.05 250.79 105.88 C 252.80 102.61 254.65 99.24 256.52 95.89 C 255.73 94.37 254.43 93.28 253.07 92.31 C 258.39 91.10 263.67 89.72 269.07 88.92 C 272.91 88.39 277.53 90.86 277.80 95.05 C 278.12 106.06 277.70 117.08 277.99 128.09 C 277.79 131.12 280.65 132.79 281.89 135.07 C 278.09 137.96 273.06 139.03 268.37 138.42 C 266.32 138.15 264.16 137.06 263.43 135.01 C 262.70 130.11 264.13 124.96 262.53 120.21 C 262.23 120.19 261.62 120.17 261.31 120.16 C 258.40 125.44 254.83 130.72 254.21 136.88 C 251.76 136.14 249.32 135.18 247.41 133.42 C 243.40 130.00 243.63 123.86 240.05 120.20 C 237.04 122.90 238.72 127.56 238.22 131.12 C 239.41 132.46 240.76 133.63 242.09 134.83 C 238.21 137.28 233.74 139.88 228.97 138.53 C 224.87 137.49 223.63 132.66 223.65 128.96 C 223.82 118.96 223.78 108.96 223.85 98.95 C 223.85 96.77 222.19 95.10 221.20 93.29 Z" />
<path fill="#e30913" opacity="1.00" d=" M 189.41 90.70 C 197.32 87.96 206.80 89.24 213.03 95.07 C 221.47 102.39 223.04 115.95 217.07 125.27 C 212.72 132.10 205.09 136.77 197.01 137.48 C 186.89 138.07 176.14 131.79 173.13 121.82 C 170.59 112.88 172.80 102.18 179.99 95.94 C 182.65 93.47 185.94 91.74 189.41 90.70 M 188.93 117.92 C 188.34 120.99 189.17 125.80 192.99 126.13 C 195.47 126.69 197.54 124.68 198.81 122.79 C 202.44 117.24 204.76 110.58 204.31 103.90 C 203.49 101.10 200.50 100.39 197.93 100.54 C 192.61 104.75 190.49 111.59 188.93 117.92 Z" />
<path fill="#e30913" opacity="1.00" d=" M 112.09 106.39 C 110.45 104.90 112.54 101.47 113.97 104.06 C 113.55 105.01 112.92 105.78 112.09 106.39 Z" />
</g>
<g id="#d19903ff">
</g>
<g id="#8a1a15ff">
<path fill="#8a1a15" opacity="1.00" d=" M 36.28 51.36 C 38.25 51.01 40.21 50.67 42.18 50.34 C 41.46 51.87 41.30 54.34 39.11 54.26 C 38.07 53.39 37.11 52.43 36.28 51.36 Z" />
</g>
<g id="#d5988fff">
<path fill="#d5988f" opacity="1.00" d=" M 64.55 54.23 C 63.06 51.89 66.15 51.24 67.82 50.85 C 67.67 51.35 67.37 52.35 67.22 52.84 C 66.74 53.15 65.79 53.76 65.32 54.06 L 64.55 54.23 Z" />
</g>
<g id="#eae327ff">
<path fill="#eae327" opacity="1.00" d=" M 95.53 53.25 C 95.04 50.52 97.61 51.77 98.66 52.39 C 101.50 52.60 104.36 52.66 107.21 52.71 C 107.73 53.93 108.28 55.14 108.82 56.36 L 108.59 56.29 C 108.18 55.58 107.36 54.16 106.96 53.45 C 104.80 53.34 102.61 53.24 100.47 53.64 C 99.88 53.63 98.70 53.61 98.12 53.60 C 97.35 54.73 96.71 55.94 95.93 57.06 C 95.22 57.66 94.48 58.24 93.73 58.80 L 93.61 58.84 L 92.11 59.24 C 88.17 60.13 84.31 61.59 80.20 61.39 C 84.62 57.44 90.69 56.52 95.53 53.25 Z" />
</g>
<g id="#c05e1bff">
<path fill="#c05e1b" opacity="1.00" d=" M 127.08 51.13 C 127.44 51.28 128.18 51.59 128.55 51.74 C 127.16 55.11 125.40 58.79 121.78 60.26 C 122.91 56.87 125.45 54.26 127.08 51.13 Z" />
</g>
<g id="#6b251aff">
<path fill="#6b251a" opacity="1.00" d=" M 65.32 54.06 C 65.79 53.76 66.74 53.15 67.22 52.84 L 68.39 52.62 C 68.43 53.32 68.51 54.72 68.55 55.42 C 68.84 55.36 69.43 55.24 69.72 55.19 C 69.85 55.68 70.10 56.66 70.22 57.15 L 69.81 57.98 C 68.74 57.72 67.67 57.47 66.60 57.24 C 67.28 55.75 66.86 54.69 65.32 54.06 Z" />
</g>
<g id="#e3191fff">
<path fill="#e3191f" opacity="1.00" d=" M 100.47 53.64 C 102.61 53.24 104.80 53.34 106.96 53.45 C 107.36 54.16 108.18 55.58 108.59 56.29 C 105.99 55.70 103.18 54.52 100.55 55.56 C 98.27 56.63 96.21 58.17 93.73 58.80 C 94.48 58.24 95.22 57.66 95.93 57.06 C 97.44 55.91 98.96 54.78 100.47 53.64 Z" />
<path fill="#e3191f" opacity="1.00" d=" M 50.81 89.84 C 51.37 90.05 52.48 90.47 53.03 90.68 C 53.75 92.08 54.47 93.47 55.17 94.88 C 55.20 95.53 55.26 96.85 55.29 97.50 C 53.22 97.76 51.23 97.25 49.41 96.28 C 49.44 96.87 49.49 98.05 49.51 98.64 C 50.66 98.46 51.81 98.27 52.96 98.10 C 53.71 99.06 54.50 99.99 55.22 100.98 C 55.75 102.35 56.08 103.79 56.40 105.22 C 55.63 105.34 54.09 105.58 53.31 105.69 C 52.66 104.96 52.09 104.15 51.49 103.38 C 52.93 101.22 50.20 97.69 48.71 100.88 C 48.35 100.49 47.98 100.12 47.61 99.75 C 47.79 98.58 47.56 97.44 47.07 96.38 C 47.69 95.35 48.31 94.32 48.93 93.30 C 49.48 93.67 50.57 94.43 51.11 94.81 C 50.93 94.29 50.56 93.23 50.37 92.70 C 49.79 92.46 48.63 91.96 48.05 91.71 C 47.42 92.07 46.17 92.80 45.55 93.16 C 45.71 92.61 46.03 91.51 46.19 90.96 C 47.79 90.93 49.45 90.76 50.81 89.84 M 52.22 92.32 C 52.74 92.84 52.74 92.84 52.22 92.32 Z" />
</g>
<g id="#af8595ff">
<path fill="#af8595" opacity="1.00" d=" M 60.91 53.98 C 61.33 54.01 62.18 54.07 62.61 54.10 L 62.50 54.84 C 62.06 54.82 61.19 54.77 60.75 54.74 L 60.91 53.98 Z" />
</g>
<g id="#b98415ff">
<path fill="#b98415" opacity="1.00" d=" M 64.55 54.23 L 65.32 54.06 C 66.86 54.69 67.28 55.75 66.60 57.24 L 65.87 57.21 C 65.12 56.37 64.68 55.38 64.55 54.23 Z" />
</g>
<g id="#9bd5e5ff">
<path fill="#9bd5e5" opacity="1.00" d=" M 114.33 66.11 C 120.68 63.74 126.82 59.92 129.94 53.66 C 129.79 57.50 129.35 61.32 128.85 65.12 C 128.41 67.79 129.81 70.28 129.88 72.91 C 128.96 75.58 127.56 78.07 126.59 80.72 C 127.24 81.80 127.83 82.90 128.36 84.04 C 129.44 87.70 126.38 91.80 128.85 95.11 C 132.02 99.94 126.53 105.65 129.32 110.71 C 131.82 115.11 134.55 119.66 134.17 124.95 C 129.60 124.08 126.22 120.70 122.07 118.86 C 120.39 118.11 118.86 117.09 117.48 115.88 C 118.85 103.30 118.60 90.62 117.94 78.00 C 117.80 73.77 115.89 69.95 114.33 66.11 Z" />
<path fill="#9bd5e5" opacity="1.00" d=" M 31.20 106.23 C 36.82 106.14 42.15 104.18 47.15 101.75 C 50.01 103.62 51.65 106.68 53.99 109.06 C 56.18 111.19 59.44 111.03 62.25 111.41 C 60.89 113.69 59.59 116.00 58.22 118.27 C 55.03 121.27 51.07 123.24 47.75 126.07 C 43.47 128.24 39.79 131.39 36.84 135.17 C 33.21 131.83 31.39 126.93 31.30 122.06 C 31.20 116.78 31.43 111.50 31.20 106.23 Z" />
</g>
<g id="#e62f28ff">
<path fill="#e62f28" opacity="1.00" d=" M 47.73 63.68 C 51.44 60.22 55.94 57.85 60.12 55.03 C 60.64 55.93 61.36 56.64 62.28 57.16 C 61.71 57.06 60.57 56.84 60.00 56.73 C 60.95 58.40 61.72 60.17 62.80 61.75 C 63.90 61.13 65.03 60.53 66.17 59.97 C 65.24 61.12 64.30 62.31 62.98 63.03 C 61.37 61.67 60.11 59.88 58.18 58.92 C 57.91 61.25 59.68 62.79 61.20 64.24 C 55.67 68.24 50.42 72.67 45.49 77.40 C 44.64 78.43 41.93 78.09 42.89 76.29 C 46.85 73.96 50.73 71.37 53.73 67.84 L 51.95 67.73 C 52.32 66.35 52.48 64.95 52.43 63.53 C 48.72 62.80 46.78 66.79 44.53 68.99 C 44.82 69.90 45.40 71.71 45.70 72.62 L 45.86 73.14 C 44.54 73.93 43.21 74.73 41.89 75.53 C 40.99 74.06 40.01 72.62 39.31 71.04 C 41.34 67.89 45.04 66.24 47.73 63.68 Z" />
</g>
<g id="#d3aa1dff">
<path fill="#d3aa1d" opacity="1.00" d=" M 60.12 55.03 L 60.75 54.74 C 61.19 54.77 62.06 54.82 62.50 54.84 C 64.35 54.86 64.23 57.89 62.28 57.16 C 61.36 56.64 60.64 55.93 60.12 55.03 Z" />
</g>
<g id="#e22921ff">
<path fill="#e22921" opacity="1.00" d=" M 98.04 62.66 C 99.43 60.46 100.35 57.70 102.99 56.69 C 104.48 57.36 105.99 58.00 107.48 58.68 C 106.78 58.71 105.37 58.77 104.66 58.80 C 105.05 59.88 105.59 60.89 106.28 61.82 C 103.51 61.34 100.60 61.39 98.04 62.66 Z" />
</g>
<g id="#f0f9faff">
<path fill="#f0f9fa" opacity="1.00" d=" M 80.20 61.39 C 84.31 61.59 88.17 60.13 92.11 59.24 C 89.19 64.61 92.34 70.72 95.66 75.10 L 95.74 75.20 C 97.16 77.37 98.93 79.27 100.87 80.97 C 100.72 82.94 100.52 84.91 100.25 86.87 C 99.33 86.83 97.49 86.73 96.57 86.69 C 94.99 86.58 93.41 86.56 91.83 86.58 C 90.15 86.56 88.47 86.44 86.80 86.34 C 86.96 87.79 87.08 89.25 87.15 90.71 C 85.95 93.58 84.11 96.10 81.94 98.30 C 81.90 97.74 81.84 96.61 81.81 96.05 C 82.58 93.48 83.40 90.92 84.31 88.39 C 84.59 87.71 84.88 87.03 85.17 86.35 C 86.61 86.11 88.05 85.83 89.50 85.59 C 89.72 84.07 89.94 82.54 90.28 81.05 C 90.72 80.54 91.59 79.54 92.03 79.04 L 92.98 80.41 C 93.00 80.81 93.04 81.61 93.06 82.01 C 92.08 82.59 91.32 83.37 90.80 84.36 C 91.30 84.44 92.30 84.62 92.80 84.70 C 95.87 83.19 93.88 79.30 92.99 76.96 C 92.08 73.63 89.69 71.14 87.44 68.65 C 86.94 68.50 85.92 68.20 85.42 68.04 C 84.93 66.98 84.50 65.89 83.98 64.84 C 83.17 64.14 82.34 63.47 81.48 62.84 C 80.65 62.36 79.82 61.89 78.98 61.43 C 79.29 61.42 79.90 61.40 80.20 61.39 Z" />
<path fill="#f0f9fa" opacity="1.00" d=" M 105.93 75.76 C 107.25 73.75 109.60 76.24 107.10 76.99 C 106.81 76.68 106.23 76.07 105.93 75.76 Z" />
<path fill="#f0f9fa" opacity="1.00" d=" M 53.08 79.94 C 53.31 78.13 55.31 77.59 56.58 76.65 C 56.79 79.76 56.60 83.07 58.13 85.91 C 59.94 89.55 60.84 93.58 63.05 97.03 C 64.11 98.92 65.24 100.76 66.48 102.54 C 69.61 107.06 73.93 110.54 78.36 113.72 C 79.72 114.48 81.39 114.27 82.89 114.57 C 83.90 115.08 84.90 115.62 85.96 116.03 C 86.90 116.38 87.84 116.72 88.79 117.03 C 89.81 116.11 90.81 115.17 91.92 114.36 C 93.63 114.77 95.25 115.50 96.99 115.84 C 99.02 115.44 100.93 114.61 102.83 113.81 C 105.23 111.98 107.02 109.40 109.74 107.97 C 109.97 107.87 110.42 107.66 110.65 107.56 C 111.01 107.27 111.73 106.68 112.09 106.39 C 112.92 105.78 113.55 105.01 113.97 104.06 C 114.27 103.70 114.87 102.96 115.17 102.59 C 115.51 104.87 115.82 107.15 116.07 109.45 L 116.06 110.27 L 115.83 110.96 C 113.99 113.88 110.21 113.15 107.71 114.99 C 107.51 115.14 107.12 115.45 106.93 115.60 C 104.17 117.51 101.76 119.99 98.63 121.28 C 93.01 121.06 87.45 120.41 82.08 118.65 C 79.60 118.08 77.10 117.51 74.79 116.41 C 71.05 114.80 68.54 111.45 65.28 109.14 C 64.24 106.74 63.66 104.07 61.92 102.05 C 59.73 99.31 57.03 96.92 55.55 93.68 C 55.56 92.55 55.72 91.37 55.28 90.30 C 54.34 86.91 52.49 83.58 53.08 79.94 Z" />
<path fill="#f0f9fa" opacity="1.00" d=" M 54.78 99.79 C 56.79 101.52 58.37 103.66 58.53 106.41 C 58.59 106.66 58.71 107.15 58.77 107.40 L 58.36 107.40 C 57.70 106.68 57.04 105.96 56.40 105.22 C 56.08 103.79 55.75 102.35 55.22 100.98 L 54.78 99.79 Z" />
</g>
<g id="#e41520ff">
<path fill="#e41520" opacity="1.00" d=" M 92.11 59.24 L 93.61 58.84 C 93.06 60.65 92.50 62.46 91.90 64.25 C 92.22 67.11 93.16 69.84 94.79 72.22 C 95.86 71.85 96.93 71.48 98.00 71.11 C 97.45 69.98 96.90 68.85 96.35 67.71 C 97.96 68.25 99.57 68.81 101.17 69.38 C 102.41 68.17 103.77 66.96 104.31 65.26 C 104.74 65.32 105.59 65.43 106.02 65.48 C 107.09 65.76 108.16 66.05 109.22 66.37 C 108.75 65.74 107.82 64.49 107.35 63.86 C 107.91 63.86 109.03 63.85 109.59 63.85 C 109.92 61.83 108.90 59.24 110.76 57.77 C 110.77 60.19 110.65 62.61 110.51 65.02 C 117.17 72.38 116.82 82.77 117.40 92.03 C 117.12 98.11 118.16 104.41 116.06 110.27 L 116.07 109.45 C 115.96 103.30 116.84 97.12 115.75 91.02 C 115.22 83.41 117.18 74.29 110.87 68.47 C 110.32 67.80 109.77 67.12 109.22 66.45 C 106.76 67.14 104.32 67.94 102.00 69.01 C 103.63 69.14 105.27 69.28 106.90 69.41 C 105.45 71.31 103.34 72.37 101.16 73.22 L 101.05 74.37 C 102.47 77.79 106.19 78.39 109.29 79.51 L 110.03 80.09 C 111.45 81.43 112.76 82.99 113.27 84.92 C 113.28 85.63 113.28 87.04 113.29 87.74 C 111.30 87.39 109.31 87.02 107.33 86.62 C 106.63 86.47 105.94 86.31 105.25 86.14 C 105.40 87.27 105.58 88.41 105.61 89.57 C 102.89 92.56 98.65 92.92 94.94 93.71 C 92.25 92.95 89.46 92.37 87.15 90.71 C 87.08 89.25 86.96 87.79 86.80 86.34 C 88.47 86.44 90.15 86.56 91.83 86.58 C 91.90 87.35 92.05 88.89 92.13 89.67 C 94.53 89.74 96.91 89.34 99.29 89.04 C 98.43 88.20 97.52 87.41 96.57 86.69 C 97.49 86.73 99.33 86.83 100.25 86.87 C 100.52 84.91 100.72 82.94 100.87 80.97 C 98.93 79.27 97.16 77.37 95.74 75.20 C 100.04 77.31 103.18 82.59 100.98 87.26 C 101.20 88.16 101.40 89.07 101.61 89.98 C 102.01 89.59 102.81 88.83 103.21 88.44 C 103.56 86.93 103.97 85.42 104.35 83.92 C 102.41 79.45 99.85 74.87 95.67 72.14 C 95.67 72.88 95.67 74.36 95.66 75.10 C 92.34 70.72 89.19 64.61 92.11 59.24 Z" />
</g>
<g id="#f1e2daff">
<path fill="#f1e2da" opacity="1.00" d=" M 104.66 58.80 C 105.37 58.77 106.78 58.71 107.48 58.68 C 107.98 58.70 108.97 58.74 109.47 58.76 C 109.31 60.11 109.09 61.46 108.81 62.79 C 107.92 62.61 107.08 62.28 106.28 61.82 C 105.59 60.89 105.05 59.88 104.66 58.80 Z" />
</g>
<g id="#37201dff">
<path fill="#37201d" opacity="1.00" d=" M 70.82 64.96 C 74.20 63.60 77.75 62.03 81.48 62.84 C 82.34 63.47 83.17 64.14 83.98 64.84 C 80.57 67.72 75.78 66.87 71.96 68.87 C 67.93 70.29 65.81 74.24 62.82 77.00 C 62.33 75.42 61.89 73.82 61.80 72.17 C 63.85 68.80 67.25 66.50 70.82 64.96 Z" />
</g>
<g id="#ab2c46ff">
<path fill="#ab2c46" opacity="1.00" d=" M 100.24 64.05 C 101.85 63.51 102.41 64.07 101.91 65.72 C 100.29 66.25 99.74 65.69 100.24 64.05 Z" />
</g>
<g id="#e41a26ff">
<path fill="#e41a26" opacity="1.00" d=" M 83.98 64.84 C 84.50 65.89 84.93 66.98 85.42 68.04 C 88.70 71.00 89.89 75.33 92.03 79.04 C 91.59 79.54 90.72 80.54 90.28 81.05 C 87.72 80.51 87.41 78.14 87.81 75.95 C 87.28 76.41 86.23 77.32 85.71 77.78 C 85.28 77.52 84.44 77.00 84.01 76.74 C 82.42 77.33 80.81 77.89 79.21 78.48 C 79.12 77.61 78.94 75.86 78.85 74.98 L 78.67 73.81 C 80.27 74.64 81.94 75.33 83.71 75.76 C 82.85 72.12 79.13 70.27 75.68 70.00 C 76.56 69.27 78.58 69.12 78.76 68.12 C 77.31 67.57 72.35 68.37 74.98 70.38 C 71.57 73.33 65.73 74.43 66.03 80.12 C 66.83 79.72 68.44 78.91 69.25 78.51 C 71.81 78.72 73.92 77.37 75.70 75.67 C 75.65 76.25 75.55 77.42 75.50 78.00 C 70.99 79.88 66.29 81.56 62.51 84.79 C 60.28 81.97 60.40 78.26 60.34 74.86 C 60.80 73.95 61.28 73.05 61.80 72.17 C 61.89 73.82 62.33 75.42 62.82 77.00 C 65.81 74.24 67.93 70.29 71.96 68.87 C 75.78 66.87 80.57 67.72 83.98 64.84 M 87.01 75.34 C 89.20 74.55 86.88 71.78 85.74 71.04 C 85.11 72.63 84.26 75.53 87.01 75.34 Z" />
</g>
<g id="#eb882cff">
<path fill="#eb882c" opacity="1.00" d=" M 74.98 70.38 C 72.35 68.37 77.31 67.57 78.76 68.12 C 78.58 69.12 76.56 69.27 75.68 70.00 L 74.98 70.38 Z" />
</g>
<g id="#e9e331ff">
<path fill="#e9e331" opacity="1.00" d=" M 110.87 68.47 C 117.18 74.29 115.22 83.41 115.75 91.02 C 116.84 97.12 115.96 103.30 116.07 109.45 C 115.82 107.15 115.51 104.87 115.17 102.59 C 114.87 102.96 114.27 103.70 113.97 104.06 C 112.54 101.47 110.45 104.90 112.09 106.39 C 111.73 106.68 111.01 107.27 110.65 107.56 C 110.42 107.66 109.97 107.87 109.74 107.97 L 108.62 107.80 C 107.25 107.66 105.88 107.61 104.52 107.42 C 106.44 105.59 108.51 103.95 110.68 102.44 C 111.55 101.57 112.39 100.67 113.19 99.73 C 113.77 100.01 114.93 100.57 115.51 100.85 C 115.49 98.28 115.58 95.70 115.23 93.15 C 114.84 90.35 114.18 87.60 113.27 84.92 C 112.76 82.99 111.45 81.43 110.03 80.09 C 111.21 80.56 112.42 80.97 113.65 81.32 C 112.52 79.21 110.39 78.10 108.44 76.90 C 108.95 76.44 109.97 75.51 110.48 75.05 C 110.98 75.20 111.97 75.50 112.46 75.65 C 113.12 73.15 111.42 70.84 110.87 68.47 Z" />
<path fill="#e9e331" opacity="1.00" d=" M 101.05 74.37 C 101.67 74.21 102.90 73.88 103.52 73.72 C 103.43 74.31 103.24 75.48 103.15 76.07 C 103.85 75.99 105.24 75.84 105.93 75.76 C 106.23 76.07 106.81 76.68 107.10 76.99 C 107.84 77.83 108.55 78.68 109.29 79.51 C 106.19 78.39 102.47 77.79 101.05 74.37 Z" />
</g>
<g id="#761b1cff">
<path fill="#761b1c" opacity="1.00" d=" M 87.01 75.34 C 84.26 75.53 85.11 72.63 85.74 71.04 C 86.88 71.78 89.20 74.55 87.01 75.34 Z" />
</g>
<g id="#bf1717ff">
<path fill="#bf1717" opacity="1.00" d=" M 33.27 76.03 C 34.34 74.85 35.58 73.83 36.81 72.81 C 37.75 74.51 39.29 76.13 39.00 78.24 C 38.51 77.57 37.53 76.23 37.03 75.56 C 35.07 76.86 36.46 78.73 37.11 80.38 C 35.06 80.02 33.56 77.95 33.27 76.03 Z" />
<path fill="#bf1717" opacity="1.00" d=" M 29.44 95.82 C 33.33 92.67 36.82 89.08 40.60 85.80 C 40.05 86.96 39.52 88.13 38.99 89.30 C 40.37 89.50 41.75 89.66 43.14 89.78 C 42.77 91.79 42.85 93.83 43.29 95.83 C 42.35 95.54 41.41 95.27 40.47 95.01 C 40.21 95.63 39.70 96.89 39.44 97.51 C 36.69 98.53 33.76 98.83 30.85 98.45 C 30.99 98.76 31.28 99.39 31.42 99.71 C 30.21 99.16 28.98 98.21 27.58 98.64 C 27.39 100.17 27.86 101.68 28.10 103.18 C 24.48 101.89 21.76 99.06 20.92 95.27 C 23.02 96.15 25.11 97.05 27.19 97.95 L 27.73 96.94 C 26.79 96.11 25.82 95.31 24.95 94.40 C 26.55 94.52 28.25 94.56 29.44 95.82 Z" />
<path fill="#bf1717" opacity="1.00" d=" M 112.01 115.32 C 113.11 114.40 114.22 113.50 115.29 112.56 C 115.34 114.12 115.59 115.67 115.69 117.24 C 115.67 117.30 115.63 117.43 115.60 117.50 C 113.95 115.54 111.84 116.85 110.22 118.02 C 110.22 118.79 110.22 119.57 110.22 120.35 C 109.19 120.28 108.17 120.22 107.14 120.18 C 108.68 118.48 110.24 116.79 112.01 115.32 Z" />
</g>
<g id="#ececaaff">
<path fill="#ececaa" opacity="1.00" d=" M 103.52 73.72 C 105.92 73.12 108.23 74.40 110.48 75.05 C 109.97 75.51 108.95 76.44 108.44 76.90 C 110.39 78.10 112.52 79.21 113.65 81.32 C 112.42 80.97 111.21 80.56 110.03 80.09 L 109.29 79.51 C 108.55 78.68 107.84 77.83 107.10 76.99 C 109.60 76.24 107.25 73.75 105.93 75.76 C 105.24 75.84 103.85 75.99 103.15 76.07 C 103.24 75.48 103.43 74.31 103.52 73.72 Z" />
</g>
<g id="#6b2927ff">
<path fill="#6b2927" opacity="1.00" d=" M 71.33 75.10 C 72.78 74.62 73.20 75.09 72.58 76.49 C 71.13 76.96 70.71 76.50 71.33 75.10 Z" />
</g>
<g id="#e51d25ff">
<path fill="#e51d25" opacity="1.00" d=" M 23.53 87.14 C 27.03 84.35 28.68 80.30 29.59 76.04 C 29.48 76.72 29.26 78.07 29.14 78.74 C 30.14 78.62 32.15 78.38 33.15 78.26 C 32.42 79.25 31.68 80.23 30.94 81.22 C 31.69 82.56 32.05 84.85 34.02 84.72 C 37.16 83.16 39.02 80.00 41.84 78.01 C 41.86 79.28 41.63 80.58 40.48 81.33 C 37.03 84.26 34.04 87.67 30.82 90.84 C 29.09 89.96 27.25 89.39 25.30 89.43 C 24.66 88.70 24.07 87.93 23.53 87.14 Z" />
</g>
<g id="#f1f8f9ff">
<path fill="#f1f8f9" opacity="1.00" d=" M 81.12 78.05 C 81.95 78.20 83.61 78.49 84.45 78.63 C 83.85 81.89 83.39 86.85 79.14 87.02 C 79.03 90.72 74.88 88.82 72.98 91.00 C 70.86 90.90 69.35 88.79 67.02 89.54 C 66.85 88.90 66.51 87.64 66.35 87.00 C 67.88 86.88 69.42 86.76 70.95 86.65 C 71.16 87.25 71.57 88.46 71.78 89.06 C 71.73 88.40 71.64 87.08 71.59 86.41 C 68.92 85.94 65.61 87.48 63.52 85.31 C 64.39 85.24 66.13 85.09 67.00 85.02 C 68.91 85.07 70.81 85.04 72.72 84.89 L 74.29 84.82 C 74.29 85.41 74.31 86.57 74.32 87.16 C 75.26 85.85 76.11 84.48 76.91 83.08 C 78.38 82.63 79.89 82.34 81.43 82.25 C 81.32 80.85 81.22 79.45 81.12 78.05 Z" />
</g>
<g id="#d92023ff">
<path fill="#d92023" opacity="1.00" d=" M 69.10 81.04 C 72.63 80.25 76.20 79.09 79.86 79.39 C 77.99 81.84 74.99 82.91 72.72 84.89 C 70.81 85.04 68.91 85.07 67.00 85.02 C 65.36 83.26 67.39 81.47 69.10 81.04 M 71.17 82.11 C 69.44 82.38 70.12 84.88 71.74 83.91 C 73.40 83.60 72.74 81.22 71.17 82.11 Z" />
</g>
<g id="#851c15ff">
<path fill="#851c15" opacity="1.00" d=" M 71.17 82.11 C 72.74 81.22 73.40 83.60 71.74 83.91 C 70.12 84.88 69.44 82.38 71.17 82.11 Z" />
</g>
<g id="#e04c45ff">
<path fill="#e04c45" opacity="1.00" d=" M 90.80 84.36 C 91.32 83.37 92.08 82.59 93.06 82.01 C 93.00 82.68 92.86 84.03 92.80 84.70 C 92.30 84.62 91.30 84.44 90.80 84.36 Z" />
</g>
<g id="#b81d1dff">
<path fill="#b81d1d" opacity="1.00" d=" M 113.27 84.92 C 114.18 87.60 114.84 90.35 115.23 93.15 C 114.50 92.23 113.76 91.32 113.00 90.43 C 112.02 91.33 111.13 92.30 110.26 93.30 C 110.11 92.97 109.81 92.32 109.66 92.00 L 109.14 90.77 C 108.52 89.39 107.89 88.02 107.33 86.62 C 109.31 87.02 111.30 87.39 113.29 87.74 C 113.28 87.04 113.28 85.63 113.27 84.92 Z" />
</g>
<g id="#ebe21fff">
<path fill="#ebe21f" opacity="1.00" d=" M 105.25 86.14 C 105.94 86.31 106.63 86.47 107.33 86.62 C 107.89 88.02 108.52 89.39 109.14 90.77 C 105.33 90.87 101.49 91.72 98.80 94.60 C 95.64 95.08 92.50 95.97 90.03 98.09 C 87.75 100.13 84.66 100.30 81.84 101.04 C 81.57 101.25 81.04 101.68 80.77 101.89 C 83.05 102.82 85.40 103.56 87.76 104.26 C 88.34 104.46 89.49 104.85 90.07 105.05 L 90.50 105.14 C 91.68 105.63 92.87 106.11 94.07 106.58 C 93.73 106.86 93.07 107.43 92.73 107.71 C 90.94 107.55 89.18 107.17 87.44 106.73 C 84.82 106.04 82.16 105.52 79.49 105.08 C 79.56 104.53 79.71 103.43 79.79 102.89 C 80.32 100.57 81.08 98.31 81.81 96.05 C 81.84 96.61 81.90 97.74 81.94 98.30 C 84.11 96.10 85.95 93.58 87.15 90.71 C 89.46 92.37 92.25 92.95 94.94 93.71 C 98.65 92.92 102.89 92.56 105.61 89.57 C 105.58 88.41 105.40 87.27 105.25 86.14 Z" />
<path fill="#ebe21f" opacity="1.00" d=" M 107.71 114.99 C 110.21 113.15 113.99 113.88 115.83 110.96 C 115.70 111.36 115.43 112.16 115.29 112.56 C 114.22 113.50 113.11 114.40 112.01 115.32 C 110.58 115.21 109.14 115.10 107.71 114.99 Z" />
</g>
<g id="#531d1aff">
<path fill="#531d1a" opacity="1.00" d=" M 91.83 86.58 C 93.41 86.56 94.99 86.58 96.57 86.69 C 97.52 87.41 98.43 88.20 99.29 89.04 C 96.91 89.34 94.53 89.74 92.13 89.67 C 92.05 88.89 91.90 87.35 91.83 86.58 Z" />
</g>
<g id="#e97c24ff">
<path fill="#e97c24" opacity="1.00" d=" M 46.98 88.93 C 48.32 88.70 49.57 89.44 50.81 89.84 C 49.45 90.76 47.79 90.93 46.19 90.96 C 46.39 90.45 46.78 89.44 46.98 88.93 Z" />
</g>
<g id="#e94a2cff">
<path fill="#e94a2c" opacity="1.00" d=" M 60.36 88.81 C 62.52 89.35 64.67 89.92 66.76 90.71 C 66.25 93.91 66.02 97.35 68.04 100.12 C 67.65 100.72 66.87 101.93 66.48 102.54 C 65.24 100.76 64.11 98.92 63.05 97.03 C 61.90 94.38 61.04 91.62 60.36 88.81 Z" />
</g>
<g id="#e51f27ff">
<path fill="#e51f27" opacity="1.00" d=" M 78.93 91.73 C 80.54 90.34 82.26 89.05 84.31 88.39 C 83.40 90.92 82.58 93.48 81.81 96.05 C 81.08 98.31 80.32 100.57 79.79 102.89 C 78.95 102.66 78.11 102.44 77.27 102.23 C 76.92 104.63 77.53 106.88 79.30 108.58 C 79.55 108.90 80.07 109.53 80.32 109.84 C 82.49 110.17 84.68 110.38 86.88 110.43 C 87.01 110.00 87.26 109.13 87.38 108.69 C 88.32 109.36 89.27 109.99 90.24 110.61 C 90.32 111.16 90.48 112.27 90.55 112.82 C 89.54 113.26 88.52 113.71 87.51 114.16 C 87.46 114.57 87.37 115.39 87.32 115.80 C 86.98 115.86 86.30 115.98 85.96 116.03 C 84.90 115.62 83.90 115.08 82.89 114.57 C 81.39 114.27 79.72 114.48 78.36 113.72 C 73.93 110.54 69.61 107.06 66.48 102.54 C 66.87 101.93 67.65 100.72 68.04 100.12 C 66.02 97.35 66.25 93.91 66.76 90.71 C 70.61 93.10 74.80 91.34 78.93 91.73 Z" />
</g>
<g id="#9d1b17ff">
<path fill="#9d1b17" opacity="1.00" d=" M 22.29 90.05 C 23.86 88.83 24.98 91.85 23.74 92.77 C 22.14 93.87 21.13 91.00 22.29 90.05 Z" />
</g>
<g id="#e51325ff">
<path fill="#e51325" opacity="1.00" d=" M 98.80 94.60 C 101.49 91.72 105.33 90.87 109.14 90.77 L 109.66 92.00 C 107.86 93.13 105.92 94.02 104.06 95.05 C 103.92 95.45 103.63 96.25 103.48 96.65 L 103.19 97.31 C 95.97 97.98 89.31 102.54 81.84 101.04 C 84.66 100.30 87.75 100.13 90.03 98.09 C 92.50 95.97 95.64 95.08 98.80 94.60 Z" />
<path fill="#e51325" opacity="1.00" d=" M 54.68 97.76 L 55.74 97.42 C 59.03 99.53 61.12 103.01 62.13 106.72 C 61.23 106.65 59.43 106.49 58.53 106.41 C 58.37 103.66 56.79 101.52 54.78 99.79 C 54.75 99.28 54.70 98.27 54.68 97.76 Z" />
</g>
<g id="#f1f8fbff">
<path fill="#f1f8fb" opacity="1.00" d=" M 110.26 93.30 C 111.13 92.30 112.02 91.33 113.00 90.43 C 113.76 91.32 114.50 92.23 115.23 93.15 C 115.58 95.70 115.49 98.28 115.51 100.85 C 114.93 100.57 113.77 100.01 113.19 99.73 C 112.39 100.67 111.55 101.57 110.68 102.44 C 110.39 99.93 109.87 97.45 109.78 94.92 C 109.90 94.51 110.14 93.70 110.26 93.30 Z" />
</g>
<g id="#ee8729ff">
<path fill="#ee8729" opacity="1.00" d=" M 52.22 92.32 C 52.74 92.84 52.74 92.84 52.22 92.32 Z" />
</g>
<g id="#30201aff">
<path fill="#30201a" opacity="1.00" d=" M 109.66 92.00 C 109.81 92.32 110.11 92.97 110.26 93.30 C 110.14 93.70 109.90 94.51 109.78 94.92 C 107.30 102.66 98.00 106.08 90.50 105.14 L 90.07 105.05 C 89.49 104.85 88.34 104.46 87.76 104.26 C 85.40 103.56 83.05 102.82 80.77 101.89 C 81.04 101.68 81.57 101.25 81.84 101.04 C 89.31 102.54 95.97 97.98 103.19 97.31 C 99.67 100.37 94.54 99.92 90.43 101.80 L 90.75 103.30 C 95.95 104.92 101.55 102.42 104.96 98.47 C 105.49 97.61 106.01 96.73 106.49 95.85 C 105.74 96.05 104.23 96.45 103.48 96.65 C 103.63 96.25 103.92 95.45 104.06 95.05 C 105.92 94.02 107.86 93.13 109.66 92.00 Z" />
</g>
<g id="#ebe224ff">
<path fill="#ebe224" opacity="1.00" d=" M 55.17 94.88 L 55.55 93.68 C 57.03 96.92 59.73 99.31 61.92 102.05 C 63.66 104.07 64.24 106.74 65.28 109.14 L 64.62 108.65 C 63.02 107.12 60.78 107.47 58.77 107.40 C 58.71 107.15 58.59 106.66 58.53 106.41 C 59.43 106.49 61.23 106.65 62.13 106.72 C 61.12 103.01 59.03 99.53 55.74 97.42 L 54.68 97.76 C 54.70 98.27 54.75 99.28 54.78 99.79 L 55.22 100.98 C 54.50 99.99 53.71 99.06 52.96 98.10 C 51.81 98.27 50.66 98.46 49.51 98.64 C 49.49 98.05 49.44 96.87 49.41 96.28 C 51.23 97.25 53.22 97.76 55.29 97.50 C 55.26 96.85 55.20 95.53 55.17 94.88 Z" />
<path fill="#ebe224" opacity="1.00" d=" M 83.62 127.26 C 85.42 128.15 87.35 128.73 89.30 129.20 C 90.15 129.47 91.01 129.74 91.86 130.02 C 93.67 132.64 95.65 135.56 99.11 135.96 C 99.60 137.63 100.19 139.28 100.79 140.92 C 99.53 139.42 98.27 137.93 96.98 136.47 C 95.75 136.81 94.52 137.14 93.29 137.46 C 90.06 134.89 86.90 132.25 83.81 129.52 C 83.76 128.95 83.67 127.83 83.62 127.26 Z" />
</g>
<g id="#e51727ff">
<path fill="#e51727" opacity="1.00" d=" M 90.50 105.14 C 98.00 106.08 107.30 102.66 109.78 94.92 C 109.87 97.45 110.39 99.93 110.68 102.44 C 108.51 103.95 106.44 105.59 104.52 107.42 C 100.76 108.79 96.26 110.53 92.73 107.71 C 93.07 107.43 93.73 106.86 94.07 106.58 C 92.87 106.11 91.68 105.63 90.50 105.14 Z" />
</g>
<g id="#e62b22ff">
<path fill="#e62b22" opacity="1.00" d=" M 27.58 98.64 C 28.98 98.21 30.21 99.16 31.42 99.71 C 33.70 101.38 36.51 101.58 39.24 101.57 C 35.89 103.51 31.87 104.29 28.10 103.18 C 27.86 101.68 27.39 100.17 27.58 98.64 Z" />
</g>
<g id="#2f1f1aff">
<path fill="#2f1f1a" opacity="1.00" d=" M 77.27 102.23 C 78.11 102.44 78.95 102.66 79.79 102.89 C 79.71 103.43 79.56 104.53 79.49 105.08 C 79.44 105.96 79.35 107.71 79.30 108.58 C 77.53 106.88 76.92 104.63 77.27 102.23 Z" />
<path fill="#2f1f1a" opacity="1.00" d=" M 110.22 118.02 C 111.84 116.85 113.95 115.54 115.60 117.50 C 113.88 119.80 111.72 121.72 109.95 123.98 C 108.95 126.61 108.72 129.46 108.30 132.23 C 107.80 130.35 107.58 128.22 106.19 126.75 C 103.09 126.59 99.94 127.10 96.88 126.36 C 92.93 125.44 88.18 125.03 85.73 121.33 C 91.33 121.10 96.95 123.94 102.45 121.63 L 102.69 121.57 C 104.19 121.17 105.66 120.68 107.14 120.18 C 108.17 120.22 109.19 120.28 110.22 120.35 C 110.22 119.57 110.22 118.79 110.22 118.02 Z" />
</g>
<g id="#ac201bff">
<path fill="#ac201b" opacity="1.00" d=" M 87.76 104.26 C 88.34 104.46 89.49 104.85 90.07 105.05 C 89.49 104.85 88.34 104.46 87.76 104.26 Z" />
</g>
<g id="#e63827ff">
<path fill="#e63827" opacity="1.00" d=" M 79.49 105.08 C 82.16 105.52 84.82 106.04 87.44 106.73 C 87.42 107.22 87.40 108.20 87.38 108.69 C 87.26 109.13 87.01 110.00 86.88 110.43 C 84.68 110.38 82.49 110.17 80.32 109.84 C 80.07 109.53 79.55 108.90 79.30 108.58 C 79.35 107.71 79.44 105.96 79.49 105.08 Z" />
</g>
<g id="#e9692eff">
<path fill="#e9692e" opacity="1.00" d=" M 87.44 106.73 C 89.18 107.17 90.94 107.55 92.73 107.71 C 96.26 110.53 100.76 108.79 104.52 107.42 C 105.88 107.61 107.25 107.66 108.62 107.80 L 109.74 107.97 C 107.02 109.40 105.23 111.98 102.83 113.81 C 103.29 112.55 103.79 111.29 104.23 110.02 C 99.61 111.47 94.90 110.17 90.24 110.61 C 89.27 109.99 88.32 109.36 87.38 108.69 C 87.40 108.20 87.42 107.22 87.44 106.73 Z" />
</g>
<g id="#b9201dff">
<path fill="#b9201d" opacity="1.00" d=" M 55.25 107.57 C 56.03 107.53 57.59 107.44 58.36 107.40 L 58.77 107.40 C 60.78 107.47 63.02 107.12 64.62 108.65 C 61.52 108.82 57.56 110.57 55.25 107.57 Z" />
</g>
<g id="#e52a25ff">
<path fill="#e52a25" opacity="1.00" d=" M 90.24 110.61 C 94.90 110.17 99.61 111.47 104.23 110.02 C 103.79 111.29 103.29 112.55 102.83 113.81 C 100.93 114.61 99.02 115.44 96.99 115.84 C 95.25 115.50 93.63 114.77 91.92 114.36 C 90.81 115.17 89.81 116.11 88.79 117.03 C 87.84 116.72 86.90 116.38 85.96 116.03 C 86.30 115.98 86.98 115.86 87.32 115.80 C 87.37 115.39 87.46 114.57 87.51 114.16 C 88.52 113.71 89.54 113.26 90.55 112.82 C 90.48 112.27 90.32 111.16 90.24 110.61 Z" />
</g>
<g id="#e41724ff">
<path fill="#e41724" opacity="1.00" d=" M 67.56 115.23 C 70.10 116.40 72.58 117.73 75.23 118.64 C 77.51 118.72 79.80 118.33 82.08 118.65 C 87.45 120.41 93.01 121.06 98.63 121.28 C 99.58 121.37 101.50 121.54 102.45 121.63 C 96.95 123.94 91.33 121.10 85.73 121.33 C 88.18 125.03 92.93 125.44 96.88 126.36 C 99.94 127.10 103.09 126.59 106.19 126.75 C 107.58 128.22 107.80 130.35 108.30 132.23 C 108.20 137.46 108.49 142.98 106.12 147.81 C 101.84 144.36 97.58 140.89 93.29 137.46 C 94.52 137.14 95.75 136.81 96.98 136.47 C 98.27 137.93 99.53 139.42 100.79 140.92 C 100.19 139.28 99.60 137.63 99.11 135.96 C 98.92 134.83 98.75 133.70 98.59 132.58 C 96.34 131.74 94.15 130.74 91.86 130.02 C 91.01 129.74 90.15 129.47 89.30 129.20 C 87.88 128.11 86.51 126.95 85.08 125.87 C 82.68 123.95 80.06 122.32 77.37 120.84 C 77.31 121.61 77.18 123.17 77.11 123.95 C 73.70 121.30 70.63 118.25 67.56 115.23 Z" />
</g>
<g id="#ddf1f6ff">
<path fill="#ddf1f6" opacity="1.00" d=" M 47.75 126.07 C 51.07 123.24 55.03 121.27 58.22 118.27 C 60.07 121.98 61.31 127.03 59.20 130.82 C 57.39 128.34 55.57 125.86 53.59 123.51 C 51.79 124.67 49.81 125.50 47.75 126.07 Z" />
</g>
<g id="#e65935ff">
<path fill="#e65935" opacity="1.00" d=" M 77.37 120.84 C 80.06 122.32 82.68 123.95 85.08 125.87 C 84.58 125.85 83.58 125.82 83.07 125.80 C 83.21 126.17 83.48 126.90 83.62 127.26 C 83.67 127.83 83.76 128.95 83.81 129.52 C 81.56 127.67 79.33 125.82 77.11 123.95 C 77.18 123.17 77.31 121.61 77.37 120.84 Z" />
</g>
<g id="#eba95dff">
<path fill="#eba95d" opacity="1.00" d=" M 83.07 125.80 C 83.58 125.82 84.58 125.85 85.08 125.87 C 86.51 126.95 87.88 128.11 89.30 129.20 C 87.35 128.73 85.42 128.15 83.62 127.26 C 83.48 126.90 83.21 126.17 83.07 125.80 Z" />
</g>
<g id="#bfe3edff">
<path fill="#bfe3ed" opacity="1.00" d=" M 70.70 139.69 C 73.66 136.47 78.32 137.19 82.18 137.79 C 85.79 138.57 89.81 137.82 93.06 139.90 C 95.55 141.53 97.45 143.89 99.76 145.75 C 97.80 145.66 95.84 145.63 93.89 145.68 C 93.36 144.44 92.73 143.24 92.19 142.00 C 87.85 140.46 82.91 141.53 78.84 139.24 C 75.06 140.53 71.78 142.81 68.45 144.94 C 65.98 145.88 63.32 146.14 60.71 146.41 C 60.43 145.00 60.49 143.57 60.92 142.20 C 64.23 145.15 68.18 142.23 70.70 139.69 Z" />
</g>
<g id="#e7f5faff">
<path fill="#e7f5fa" opacity="1.00" d=" M 68.45 144.94 C 71.78 142.81 75.06 140.53 78.84 139.24 C 82.91 141.53 87.85 140.46 92.19 142.00 C 92.73 143.24 93.36 144.44 93.89 145.68 C 89.78 146.13 85.89 144.95 81.91 144.29 C 81.26 144.82 80.61 145.36 79.95 145.89 C 79.22 145.46 78.49 145.03 77.75 144.60 C 77.16 144.99 76.56 145.38 75.96 145.77 C 75.44 145.32 74.92 144.88 74.41 144.43 C 74.04 144.87 73.31 145.76 72.95 146.20 C 71.40 145.97 69.82 145.75 68.45 144.94 Z" />
</g>
<g id="#9e5e06ff">
</g>
</svg>
